<svg width="28" height="28" viewBox="0 0 28 28" fill="none" xmlns="http://www.w3.org/2000/svg">
<path d="M12.8333 15.1667V18.6667C12.8333 18.9972 12.9453 19.2745 13.1693 19.4985C13.3933 19.7225 13.6702 19.8341 14 19.8333C14.3298 19.8326 14.6071 19.7206 14.8318 19.4973C15.0566 19.2741 15.1682 18.9972 15.1667 18.6667V15.1667H18.6667C18.9972 15.1667 19.2745 15.0547 19.4985 14.8307C19.7225 14.6067 19.8341 14.3298 19.8333 14C19.8326 13.6702 19.7206 13.3933 19.4973 13.1693C19.2741 12.9453 18.9972 12.8333 18.6667 12.8333H15.1667V9.33333C15.1667 9.00278 15.0547 8.72589 14.8307 8.50267C14.6067 8.27944 14.3298 8.16744 14 8.16667C13.6702 8.16589 13.3933 8.27789 13.1693 8.50267C12.9453 8.72744 12.8333 9.00433 12.8333 9.33333V12.8333H9.33333C9.00278 12.8333 8.72589 12.9453 8.50267 13.1693C8.27944 13.3933 8.16744 13.6702 8.16667 14C8.16589 14.3298 8.27789 14.6071 8.50267 14.8318C8.72744 15.0566 9.00433 15.1682 9.33333 15.1667H12.8333ZM5.83333 24.5C5.19167 24.5 4.64256 24.2717 4.186 23.8152C3.72944 23.3586 3.50078 22.8091 3.5 22.1667V5.83333C3.5 5.19167 3.72867 4.64256 4.186 4.186C4.64333 3.72944 5.19244 3.50078 5.83333 3.5H22.1667C22.8083 3.5 23.3578 3.72867 23.8152 4.186C24.2725 4.64333 24.5008 5.19244 24.5 5.83333V22.1667C24.5 22.8083 24.2717 23.3578 23.8152 23.8152C23.3586 24.2725 22.8091 24.5008 22.1667 24.5H5.83333Z" fill="#121212"/>
<path d="M12.8333 15.1667V18.6667C12.8333 18.9972 12.9453 19.2745 13.1693 19.4985C13.3933 19.7225 13.6702 19.8341 14 19.8333C14.3298 19.8326 14.6071 19.7206 14.8318 19.4973C15.0566 19.2741 15.1682 18.9972 15.1667 18.6667V15.1667H18.6667C18.9972 15.1667 19.2745 15.0547 19.4985 14.8307C19.7225 14.6067 19.8341 14.3298 19.8333 14C19.8326 13.6702 19.7206 13.3933 19.4973 13.1693C19.2741 12.9453 18.9972 12.8333 18.6667 12.8333H15.1667V9.33333C15.1667 9.00278 15.0547 8.72589 14.8307 8.50267C14.6067 8.27944 14.3298 8.16744 14 8.16667C13.6702 8.16589 13.3933 8.27789 13.1693 8.50267C12.9453 8.72744 12.8333 9.00433 12.8333 9.33333V12.8333H9.33333C9.00278 12.8333 8.72589 12.9453 8.50267 13.1693C8.27944 13.3933 8.16744 13.6702 8.16667 14C8.16589 14.3298 8.27789 14.6071 8.50267 14.8318C8.72744 15.0566 9.00433 15.1682 9.33333 15.1667H12.8333ZM5.83333 24.5C5.19167 24.5 4.64256 24.2717 4.186 23.8152C3.72944 23.3586 3.50078 22.8091 3.5 22.1667V5.83333C3.5 5.19167 3.72867 4.64256 4.186 4.186C4.64333 3.72944 5.19244 3.50078 5.83333 3.5H22.1667C22.8083 3.5 23.3578 3.72867 23.8152 4.186C24.2725 4.64333 24.5008 5.19244 24.5 5.83333V22.1667C24.5 22.8083 24.2717 23.3578 23.8152 23.8152C23.3586 24.2725 22.8091 24.5008 22.1667 24.5H5.83333Z" fill="black" fill-opacity="0.2"/>
<path d="M12.8333 15.1667V18.6667C12.8333 18.9972 12.9453 19.2745 13.1693 19.4985C13.3933 19.7225 13.6702 19.8341 14 19.8333C14.3298 19.8326 14.6071 19.7206 14.8318 19.4973C15.0566 19.2741 15.1682 18.9972 15.1667 18.6667V15.1667H18.6667C18.9972 15.1667 19.2745 15.0547 19.4985 14.8307C19.7225 14.6067 19.8341 14.3298 19.8333 14C19.8326 13.6702 19.7206 13.3933 19.4973 13.1693C19.2741 12.9453 18.9972 12.8333 18.6667 12.8333H15.1667V9.33333C15.1667 9.00278 15.0547 8.72589 14.8307 8.50267C14.6067 8.27944 14.3298 8.16744 14 8.16667C13.6702 8.16589 13.3933 8.27789 13.1693 8.50267C12.9453 8.72744 12.8333 9.00433 12.8333 9.33333V12.8333H9.33333C9.00278 12.8333 8.72589 12.9453 8.50267 13.1693C8.27944 13.3933 8.16744 13.6702 8.16667 14C8.16589 14.3298 8.27789 14.6071 8.50267 14.8318C8.72744 15.0566 9.00433 15.1682 9.33333 15.1667H12.8333ZM5.83333 24.5C5.19167 24.5 4.64256 24.2717 4.186 23.8152C3.72944 23.3586 3.50078 22.8091 3.5 22.1667V5.83333C3.5 5.19167 3.72867 4.64256 4.186 4.186C4.64333 3.72944 5.19244 3.50078 5.83333 3.5H22.1667C22.8083 3.5 23.3578 3.72867 23.8152 4.186C24.2725 4.64333 24.5008 5.19244 24.5 5.83333V22.1667C24.5 22.8083 24.2717 23.3578 23.8152 23.8152C23.3586 24.2725 22.8091 24.5008 22.1667 24.5H5.83333Z" fill="black" fill-opacity="0.2"/>
<path d="M12.8333 15.1667V18.6667C12.8333 18.9972 12.9453 19.2745 13.1693 19.4985C13.3933 19.7225 13.6702 19.8341 14 19.8333C14.3298 19.8326 14.6071 19.7206 14.8318 19.4973C15.0566 19.2741 15.1682 18.9972 15.1667 18.6667V15.1667H18.6667C18.9972 15.1667 19.2745 15.0547 19.4985 14.8307C19.7225 14.6067 19.8341 14.3298 19.8333 14C19.8326 13.6702 19.7206 13.3933 19.4973 13.1693C19.2741 12.9453 18.9972 12.8333 18.6667 12.8333H15.1667V9.33333C15.1667 9.00278 15.0547 8.72589 14.8307 8.50267C14.6067 8.27944 14.3298 8.16744 14 8.16667C13.6702 8.16589 13.3933 8.27789 13.1693 8.50267C12.9453 8.72744 12.8333 9.00433 12.8333 9.33333V12.8333H9.33333C9.00278 12.8333 8.72589 12.9453 8.50267 13.1693C8.27944 13.3933 8.16744 13.6702 8.16667 14C8.16589 14.3298 8.27789 14.6071 8.50267 14.8318C8.72744 15.0566 9.00433 15.1682 9.33333 15.1667H12.8333ZM5.83333 24.5C5.19167 24.5 4.64256 24.2717 4.186 23.8152C3.72944 23.3586 3.50078 22.8091 3.5 22.1667V5.83333C3.5 5.19167 3.72867 4.64256 4.186 4.186C4.64333 3.72944 5.19244 3.50078 5.83333 3.5H22.1667C22.8083 3.5 23.3578 3.72867 23.8152 4.186C24.2725 4.64333 24.5008 5.19244 24.5 5.83333V22.1667C24.5 22.8083 24.2717 23.3578 23.8152 23.8152C23.3586 24.2725 22.8091 24.5008 22.1667 24.5H5.83333Z" fill="black" fill-opacity="0.2"/>
<path d="M12.8333 15.1667V18.6667C12.8333 18.9972 12.9453 19.2745 13.1693 19.4985C13.3933 19.7225 13.6702 19.8341 14 19.8333C14.3298 19.8326 14.6071 19.7206 14.8318 19.4973C15.0566 19.2741 15.1682 18.9972 15.1667 18.6667V15.1667H18.6667C18.9972 15.1667 19.2745 15.0547 19.4985 14.8307C19.7225 14.6067 19.8341 14.3298 19.8333 14C19.8326 13.6702 19.7206 13.3933 19.4973 13.1693C19.2741 12.9453 18.9972 12.8333 18.6667 12.8333H15.1667V9.33333C15.1667 9.00278 15.0547 8.72589 14.8307 8.50267C14.6067 8.27944 14.3298 8.16744 14 8.16667C13.6702 8.16589 13.3933 8.27789 13.1693 8.50267C12.9453 8.72744 12.8333 9.00433 12.8333 9.33333V12.8333H9.33333C9.00278 12.8333 8.72589 12.9453 8.50267 13.1693C8.27944 13.3933 8.16744 13.6702 8.16667 14C8.16589 14.3298 8.27789 14.6071 8.50267 14.8318C8.72744 15.0566 9.00433 15.1682 9.33333 15.1667H12.8333ZM5.83333 24.5C5.19167 24.5 4.64256 24.2717 4.186 23.8152C3.72944 23.3586 3.50078 22.8091 3.5 22.1667V5.83333C3.5 5.19167 3.72867 4.64256 4.186 4.186C4.64333 3.72944 5.19244 3.50078 5.83333 3.5H22.1667C22.8083 3.5 23.3578 3.72867 23.8152 4.186C24.2725 4.64333 24.5008 5.19244 24.5 5.83333V22.1667C24.5 22.8083 24.2717 23.3578 23.8152 23.8152C23.3586 24.2725 22.8091 24.5008 22.1667 24.5H5.83333Z" fill="black" fill-opacity="0.2"/>
<path d="M12.8333 15.1667V18.6667C12.8333 18.9972 12.9453 19.2745 13.1693 19.4985C13.3933 19.7225 13.6702 19.8341 14 19.8333C14.3298 19.8326 14.6071 19.7206 14.8318 19.4973C15.0566 19.2741 15.1682 18.9972 15.1667 18.6667V15.1667H18.6667C18.9972 15.1667 19.2745 15.0547 19.4985 14.8307C19.7225 14.6067 19.8341 14.3298 19.8333 14C19.8326 13.6702 19.7206 13.3933 19.4973 13.1693C19.2741 12.9453 18.9972 12.8333 18.6667 12.8333H15.1667V9.33333C15.1667 9.00278 15.0547 8.72589 14.8307 8.50267C14.6067 8.27944 14.3298 8.16744 14 8.16667C13.6702 8.16589 13.3933 8.27789 13.1693 8.50267C12.9453 8.72744 12.8333 9.00433 12.8333 9.33333V12.8333H9.33333C9.00278 12.8333 8.72589 12.9453 8.50267 13.1693C8.27944 13.3933 8.16744 13.6702 8.16667 14C8.16589 14.3298 8.27789 14.6071 8.50267 14.8318C8.72744 15.0566 9.00433 15.1682 9.33333 15.1667H12.8333ZM5.83333 24.5C5.19167 24.5 4.64256 24.2717 4.186 23.8152C3.72944 23.3586 3.50078 22.8091 3.5 22.1667V5.83333C3.5 5.19167 3.72867 4.64256 4.186 4.186C4.64333 3.72944 5.19244 3.50078 5.83333 3.5H22.1667C22.8083 3.5 23.3578 3.72867 23.8152 4.186C24.2725 4.64333 24.5008 5.19244 24.5 5.83333V22.1667C24.5 22.8083 24.2717 23.3578 23.8152 23.8152C23.3586 24.2725 22.8091 24.5008 22.1667 24.5H5.83333Z" fill="black" fill-opacity="0.2"/>
<path d="M12.8333 15.1667V18.6667C12.8333 18.9972 12.9453 19.2745 13.1693 19.4985C13.3933 19.7225 13.6702 19.8341 14 19.8333C14.3298 19.8326 14.6071 19.7206 14.8318 19.4973C15.0566 19.2741 15.1682 18.9972 15.1667 18.6667V15.1667H18.6667C18.9972 15.1667 19.2745 15.0547 19.4985 14.8307C19.7225 14.6067 19.8341 14.3298 19.8333 14C19.8326 13.6702 19.7206 13.3933 19.4973 13.1693C19.2741 12.9453 18.9972 12.8333 18.6667 12.8333H15.1667V9.33333C15.1667 9.00278 15.0547 8.72589 14.8307 8.50267C14.6067 8.27944 14.3298 8.16744 14 8.16667C13.6702 8.16589 13.3933 8.27789 13.1693 8.50267C12.9453 8.72744 12.8333 9.00433 12.8333 9.33333V12.8333H9.33333C9.00278 12.8333 8.72589 12.9453 8.50267 13.1693C8.27944 13.3933 8.16744 13.6702 8.16667 14C8.16589 14.3298 8.27789 14.6071 8.50267 14.8318C8.72744 15.0566 9.00433 15.1682 9.33333 15.1667H12.8333ZM5.83333 24.5C5.19167 24.5 4.64256 24.2717 4.186 23.8152C3.72944 23.3586 3.50078 22.8091 3.5 22.1667V5.83333C3.5 5.19167 3.72867 4.64256 4.186 4.186C4.64333 3.72944 5.19244 3.50078 5.83333 3.5H22.1667C22.8083 3.5 23.3578 3.72867 23.8152 4.186C24.2725 4.64333 24.5008 5.19244 24.5 5.83333V22.1667C24.5 22.8083 24.2717 23.3578 23.8152 23.8152C23.3586 24.2725 22.8091 24.5008 22.1667 24.5H5.83333Z" fill="black" fill-opacity="0.2"/>
<path d="M12.8333 15.1667V18.6667C12.8333 18.9972 12.9453 19.2745 13.1693 19.4985C13.3933 19.7225 13.6702 19.8341 14 19.8333C14.3298 19.8326 14.6071 19.7206 14.8318 19.4973C15.0566 19.2741 15.1682 18.9972 15.1667 18.6667V15.1667H18.6667C18.9972 15.1667 19.2745 15.0547 19.4985 14.8307C19.7225 14.6067 19.8341 14.3298 19.8333 14C19.8326 13.6702 19.7206 13.3933 19.4973 13.1693C19.2741 12.9453 18.9972 12.8333 18.6667 12.8333H15.1667V9.33333C15.1667 9.00278 15.0547 8.72589 14.8307 8.50267C14.6067 8.27944 14.3298 8.16744 14 8.16667C13.6702 8.16589 13.3933 8.27789 13.1693 8.50267C12.9453 8.72744 12.8333 9.00433 12.8333 9.33333V12.8333H9.33333C9.00278 12.8333 8.72589 12.9453 8.50267 13.1693C8.27944 13.3933 8.16744 13.6702 8.16667 14C8.16589 14.3298 8.27789 14.6071 8.50267 14.8318C8.72744 15.0566 9.00433 15.1682 9.33333 15.1667H12.8333ZM5.83333 24.5C5.19167 24.5 4.64256 24.2717 4.186 23.8152C3.72944 23.3586 3.50078 22.8091 3.5 22.1667V5.83333C3.5 5.19167 3.72867 4.64256 4.186 4.186C4.64333 3.72944 5.19244 3.50078 5.83333 3.5H22.1667C22.8083 3.5 23.3578 3.72867 23.8152 4.186C24.2725 4.64333 24.5008 5.19244 24.5 5.83333V22.1667C24.5 22.8083 24.2717 23.3578 23.8152 23.8152C23.3586 24.2725 22.8091 24.5008 22.1667 24.5H5.83333Z" fill="black" fill-opacity="0.2"/>
<path d="M12.8333 15.1667V18.6667C12.8333 18.9972 12.9453 19.2745 13.1693 19.4985C13.3933 19.7225 13.6702 19.8341 14 19.8333C14.3298 19.8326 14.6071 19.7206 14.8318 19.4973C15.0566 19.2741 15.1682 18.9972 15.1667 18.6667V15.1667H18.6667C18.9972 15.1667 19.2745 15.0547 19.4985 14.8307C19.7225 14.6067 19.8341 14.3298 19.8333 14C19.8326 13.6702 19.7206 13.3933 19.4973 13.1693C19.2741 12.9453 18.9972 12.8333 18.6667 12.8333H15.1667V9.33333C15.1667 9.00278 15.0547 8.72589 14.8307 8.50267C14.6067 8.27944 14.3298 8.16744 14 8.16667C13.6702 8.16589 13.3933 8.27789 13.1693 8.50267C12.9453 8.72744 12.8333 9.00433 12.8333 9.33333V12.8333H9.33333C9.00278 12.8333 8.72589 12.9453 8.50267 13.1693C8.27944 13.3933 8.16744 13.6702 8.16667 14C8.16589 14.3298 8.27789 14.6071 8.50267 14.8318C8.72744 15.0566 9.00433 15.1682 9.33333 15.1667H12.8333ZM5.83333 24.5C5.19167 24.5 4.64256 24.2717 4.186 23.8152C3.72944 23.3586 3.50078 22.8091 3.5 22.1667V5.83333C3.5 5.19167 3.72867 4.64256 4.186 4.186C4.64333 3.72944 5.19244 3.50078 5.83333 3.5H22.1667C22.8083 3.5 23.3578 3.72867 23.8152 4.186C24.2725 4.64333 24.5008 5.19244 24.5 5.83333V22.1667C24.5 22.8083 24.2717 23.3578 23.8152 23.8152C23.3586 24.2725 22.8091 24.5008 22.1667 24.5H5.83333Z" fill="black" fill-opacity="0.2"/>
<path d="M12.8333 15.1667V18.6667C12.8333 18.9972 12.9453 19.2745 13.1693 19.4985C13.3933 19.7225 13.6702 19.8341 14 19.8333C14.3298 19.8326 14.6071 19.7206 14.8318 19.4973C15.0566 19.2741 15.1682 18.9972 15.1667 18.6667V15.1667H18.6667C18.9972 15.1667 19.2745 15.0547 19.4985 14.8307C19.7225 14.6067 19.8341 14.3298 19.8333 14C19.8326 13.6702 19.7206 13.3933 19.4973 13.1693C19.2741 12.9453 18.9972 12.8333 18.6667 12.8333H15.1667V9.33333C15.1667 9.00278 15.0547 8.72589 14.8307 8.50267C14.6067 8.27944 14.3298 8.16744 14 8.16667C13.6702 8.16589 13.3933 8.27789 13.1693 8.50267C12.9453 8.72744 12.8333 9.00433 12.8333 9.33333V12.8333H9.33333C9.00278 12.8333 8.72589 12.9453 8.50267 13.1693C8.27944 13.3933 8.16744 13.6702 8.16667 14C8.16589 14.3298 8.27789 14.6071 8.50267 14.8318C8.72744 15.0566 9.00433 15.1682 9.33333 15.1667H12.8333ZM5.83333 24.5C5.19167 24.5 4.64256 24.2717 4.186 23.8152C3.72944 23.3586 3.50078 22.8091 3.5 22.1667V5.83333C3.5 5.19167 3.72867 4.64256 4.186 4.186C4.64333 3.72944 5.19244 3.50078 5.83333 3.5H22.1667C22.8083 3.5 23.3578 3.72867 23.8152 4.186C24.2725 4.64333 24.5008 5.19244 24.5 5.83333V22.1667C24.5 22.8083 24.2717 23.3578 23.8152 23.8152C23.3586 24.2725 22.8091 24.5008 22.1667 24.5H5.83333Z" fill="black" fill-opacity="0.2"/>
<path d="M12.8333 15.1667V18.6667C12.8333 18.9972 12.9453 19.2745 13.1693 19.4985C13.3933 19.7225 13.6702 19.8341 14 19.8333C14.3298 19.8326 14.6071 19.7206 14.8318 19.4973C15.0566 19.2741 15.1682 18.9972 15.1667 18.6667V15.1667H18.6667C18.9972 15.1667 19.2745 15.0547 19.4985 14.8307C19.7225 14.6067 19.8341 14.3298 19.8333 14C19.8326 13.6702 19.7206 13.3933 19.4973 13.1693C19.2741 12.9453 18.9972 12.8333 18.6667 12.8333H15.1667V9.33333C15.1667 9.00278 15.0547 8.72589 14.8307 8.50267C14.6067 8.27944 14.3298 8.16744 14 8.16667C13.6702 8.16589 13.3933 8.27789 13.1693 8.50267C12.9453 8.72744 12.8333 9.00433 12.8333 9.33333V12.8333H9.33333C9.00278 12.8333 8.72589 12.9453 8.50267 13.1693C8.27944 13.3933 8.16744 13.6702 8.16667 14C8.16589 14.3298 8.27789 14.6071 8.50267 14.8318C8.72744 15.0566 9.00433 15.1682 9.33333 15.1667H12.8333ZM5.83333 24.5C5.19167 24.5 4.64256 24.2717 4.186 23.8152C3.72944 23.3586 3.50078 22.8091 3.5 22.1667V5.83333C3.5 5.19167 3.72867 4.64256 4.186 4.186C4.64333 3.72944 5.19244 3.50078 5.83333 3.5H22.1667C22.8083 3.5 23.3578 3.72867 23.8152 4.186C24.2725 4.64333 24.5008 5.19244 24.5 5.83333V22.1667C24.5 22.8083 24.2717 23.3578 23.8152 23.8152C23.3586 24.2725 22.8091 24.5008 22.1667 24.5H5.83333Z" fill="black" fill-opacity="0.2"/>
<path d="M12.8333 15.1667V18.6667C12.8333 18.9972 12.9453 19.2745 13.1693 19.4985C13.3933 19.7225 13.6702 19.8341 14 19.8333C14.3298 19.8326 14.6071 19.7206 14.8318 19.4973C15.0566 19.2741 15.1682 18.9972 15.1667 18.6667V15.1667H18.6667C18.9972 15.1667 19.2745 15.0547 19.4985 14.8307C19.7225 14.6067 19.8341 14.3298 19.8333 14C19.8326 13.6702 19.7206 13.3933 19.4973 13.1693C19.2741 12.9453 18.9972 12.8333 18.6667 12.8333H15.1667V9.33333C15.1667 9.00278 15.0547 8.72589 14.8307 8.50267C14.6067 8.27944 14.3298 8.16744 14 8.16667C13.6702 8.16589 13.3933 8.27789 13.1693 8.50267C12.9453 8.72744 12.8333 9.00433 12.8333 9.33333V12.8333H9.33333C9.00278 12.8333 8.72589 12.9453 8.50267 13.1693C8.27944 13.3933 8.16744 13.6702 8.16667 14C8.16589 14.3298 8.27789 14.6071 8.50267 14.8318C8.72744 15.0566 9.00433 15.1682 9.33333 15.1667H12.8333ZM5.83333 24.5C5.19167 24.5 4.64256 24.2717 4.186 23.8152C3.72944 23.3586 3.50078 22.8091 3.5 22.1667V5.83333C3.5 5.19167 3.72867 4.64256 4.186 4.186C4.64333 3.72944 5.19244 3.50078 5.83333 3.5H22.1667C22.8083 3.5 23.3578 3.72867 23.8152 4.186C24.2725 4.64333 24.5008 5.19244 24.5 5.83333V22.1667C24.5 22.8083 24.2717 23.3578 23.8152 23.8152C23.3586 24.2725 22.8091 24.5008 22.1667 24.5H5.83333Z" fill="black" fill-opacity="0.2"/>
</svg>
