<svg width="16" height="16" viewBox="0 0 16 16" fill="none" xmlns="http://www.w3.org/2000/svg">
<path d="M11 2.54565C12.1673 2.54565 13.3143 2.8536 14.3252 3.43726C14.5261 3.55338 14.6503 3.76769 14.6504 3.99976V12.6667C14.6503 12.8988 14.5261 13.1131 14.3252 13.2292C14.1241 13.3454 13.8759 13.3454 13.6748 13.2292C12.8616 12.7598 11.939 12.5125 11 12.5125C10.061 12.5125 9.13844 12.7598 8.3252 13.2292C8.12408 13.3454 7.87592 13.3454 7.6748 13.2292C6.86156 12.7598 5.93903 12.5125 5 12.5125C4.06097 12.5125 3.13844 12.7598 2.3252 13.2292C2.12408 13.3454 1.87592 13.3454 1.6748 13.2292C1.47389 13.1131 1.34968 12.8988 1.34961 12.6667V3.99976C1.34966 3.76769 1.47389 3.55338 1.6748 3.43726C2.68573 2.8536 3.83268 2.54565 5 2.54565C6.04426 2.54565 7.07117 2.79373 8 3.26343C8.92883 2.79373 9.95574 2.54565 11 2.54565ZM5 3.84644C4.18406 3.84644 3.38053 4.03249 2.65039 4.3894V11.6453C3.39889 11.3624 4.19394 11.2126 5 11.2126C5.80606 11.2126 6.60111 11.3624 7.34961 11.6453V4.3894C6.61947 4.03249 5.81594 3.84644 5 3.84644ZM11 3.84644C10.1841 3.84644 9.38053 4.03249 8.65039 4.3894V11.6453C9.39889 11.3624 10.1939 11.2126 11 11.2126C11.8061 11.2126 12.6011 11.3624 13.3496 11.6453V4.3894C12.6195 4.03249 11.8159 3.84644 11 3.84644Z" fill="#5E5E5E"/>
</svg>
