<svg width="40" height="40" viewBox="0 0 40 40" fill="none" xmlns="http://www.w3.org/2000/svg">
<path d="M6.33333 4C4.48333 4 3 5.48333 3 7.33333V24C3 24.8841 3.35119 25.7319 3.97631 26.357C4.60143 26.9821 5.44928 27.3333 6.33333 27.3333H19.6667V35.6667L24.6667 30.6667L29.6667 35.6667V27.3333H33C33.8841 27.3333 34.7319 26.9821 35.357 26.357C35.9821 25.7319 36.3333 24.8841 36.3333 24V7.33333C36.3333 6.44928 35.9821 5.60143 35.357 4.97631C34.7319 4.35119 33.8841 4 33 4H6.33333ZM19.6667 7.33333L24.6667 10.6667L29.6667 7.33333V13.1667L34.6667 15.6667L29.6667 18.1667V24L24.6667 20.6667L19.6667 24V18.1667L14.6667 15.6667L19.6667 13.1667V7.33333ZM6.33333 7.33333H14.6667V10.6667H6.33333V7.33333ZM6.33333 14H11.3333V17.3333H6.33333V14ZM6.33333 20.6667H14.6667V24H6.33333V20.6667Z" fill="#0B257C"/>
</svg>
