<svg width="40" height="40" viewBox="0 0 40 40" fill="none" xmlns="http://www.w3.org/2000/svg">
<path d="M33.5 20C33.5 16.4196 32.0776 12.9858 29.5459 10.4541C27.0142 7.92236 23.5804 6.5 20 6.5C16.4196 6.5 12.9858 7.92236 10.4541 10.4541C7.92236 12.9858 6.5 16.4196 6.5 20C6.5 21.7727 6.84898 23.5282 7.52734 25.166C8.20578 26.8039 9.20051 28.2923 10.4541 29.5459C11.7077 30.7995 13.1961 31.7942 14.834 32.4727C16.4718 33.151 18.2273 33.5 20 33.5C21.7727 33.5 23.5282 33.151 25.166 32.4727C26.8039 31.7942 28.2923 30.7995 29.5459 29.5459C30.7995 28.2923 31.7942 26.8039 32.4727 25.166C33.151 23.5282 33.5 21.7727 33.5 20ZM36.5 20C36.5 22.1668 36.0733 24.3126 35.2441 26.3145C34.4149 28.3163 33.1991 30.1349 31.667 31.667C30.1349 33.1991 28.3163 34.4149 26.3145 35.2441C24.3126 36.0733 22.1668 36.5 20 36.5C17.8332 36.5 15.6874 36.0733 13.6855 35.2441C11.6837 34.4149 9.86515 33.1991 8.33301 31.667C6.80087 30.1349 5.58506 28.3163 4.75586 26.3145C3.92666 24.3126 3.5 22.1668 3.5 20C3.5 15.6239 5.23866 11.4274 8.33301 8.33301C11.4274 5.23866 15.6239 3.5 20 3.5C24.3761 3.5 28.5726 5.23866 31.667 8.33301C34.7613 11.4274 36.5 15.6239 36.5 20Z" fill="url(#paint0_linear_1395_9440)"/>
<path d="M18.5 11.6667C18.5 10.8383 19.1716 10.1667 20 10.1667C20.8284 10.1667 21.5 10.8383 21.5 11.6667V19.3787L26.0605 23.9392C26.6463 24.5249 26.6462 25.4745 26.0605 26.0603C25.4748 26.6461 24.5252 26.6461 23.9395 26.0603L18.9395 21.0603C18.6583 20.779 18.5 20.3975 18.5 19.9998V11.6667Z" fill="url(#paint1_linear_1395_9440)"/>
<defs>
<linearGradient id="paint0_linear_1395_9440" x1="3.5" y1="20" x2="36.5" y2="20" gradientUnits="userSpaceOnUse">
<stop stop-color="#A7BAFA"/>
<stop offset="0.509615" stop-color="#FCC4C3"/>
<stop offset="1" stop-color="#FFF4DA"/>
</linearGradient>
<linearGradient id="paint1_linear_1395_9440" x1="18.5" y1="18.3332" x2="26.4998" y2="18.3332" gradientUnits="userSpaceOnUse">
<stop stop-color="#A7BAFA"/>
<stop offset="0.509615" stop-color="#FCC4C3"/>
<stop offset="1" stop-color="#FFF4DA"/>
</linearGradient>
</defs>
</svg>
