<svg width="40" height="40" viewBox="0 0 40 40" fill="none" xmlns="http://www.w3.org/2000/svg">
<path d="M9.49978 36.457C8.58312 36.5959 7.757 36.3809 7.02145 35.812C6.28589 35.2431 5.86201 34.4998 5.74978 33.582L3.54145 15.3737C3.43034 14.457 3.65256 13.6376 4.20812 12.9154C4.76367 12.1931 5.49978 11.7765 6.41645 11.6654L8.33312 11.4154V24.9987C8.33312 26.832 8.98589 28.4015 10.2915 29.707C11.597 31.0126 13.1664 31.6654 14.9998 31.6654H30.4998C30.3331 32.332 29.9998 32.9087 29.4998 33.3954C28.9998 33.882 28.3887 34.1665 27.6664 34.2487L9.49978 36.457ZM14.9998 28.332C14.0831 28.332 13.2987 28.0059 12.6464 27.3537C11.9942 26.7015 11.6676 25.9165 11.6664 24.9987V6.66536C11.6664 5.7487 11.9931 4.96425 12.6464 4.31203C13.2998 3.65981 14.0842 3.33314 14.9998 3.33203H33.3331C34.2498 3.33203 35.0348 3.6587 35.6881 4.31203C36.3414 4.96536 36.6676 5.74981 36.6664 6.66536V24.9987C36.6664 25.9154 36.3403 26.7004 35.6881 27.3537C35.0359 28.007 34.2509 28.3331 33.3331 28.332H14.9998ZM21.2081 20.332L24.1664 18.5404L27.1248 20.332C27.2914 20.4431 27.4514 20.4431 27.6048 20.332C27.7581 20.2209 27.8064 20.0681 27.7498 19.8737L26.9581 16.4987L29.5414 14.2487C29.6803 14.1098 29.7287 13.9637 29.6864 13.8104C29.6442 13.657 29.5264 13.567 29.3331 13.5404L25.9164 13.2487L24.5414 10.082C24.4859 9.91537 24.3609 9.83203 24.1664 9.83203C23.972 9.83203 23.847 9.91537 23.7914 10.082L22.4164 13.2487L18.9998 13.5404C18.8053 13.5681 18.6876 13.6587 18.6464 13.812C18.6053 13.9654 18.6537 14.1109 18.7914 14.2487L21.3748 16.4987L20.5831 19.8737C20.5276 20.0681 20.5764 20.2209 20.7298 20.332C20.8831 20.4431 21.0426 20.4431 21.2081 20.332Z" fill="#0B257C"/>
</svg>
