<svg width="40" height="40" viewBox="0 0 40 40" fill="none" xmlns="http://www.w3.org/2000/svg">
<path d="M30.0003 3.33203H20.0003V14.9987L15.8337 12.4987L11.667 14.9987V3.33203H10.0003C9.11627 3.33203 8.26842 3.68322 7.6433 4.30834C7.01818 4.93346 6.66699 5.78131 6.66699 6.66536V33.332C6.66699 34.2161 7.01818 35.0639 7.6433 35.6891C8.26842 36.3142 9.11627 36.6654 10.0003 36.6654H30.0003C30.8844 36.6654 31.7322 36.3142 32.3573 35.6891C32.9825 35.0639 33.3337 34.2161 33.3337 33.332V6.66536C33.3337 5.78131 32.9825 4.93346 32.3573 4.30834C31.7322 3.68322 30.8844 3.33203 30.0003 3.33203ZM23.3337 19.9987C23.9929 19.9987 24.6374 20.1942 25.1856 20.5605C25.7337 20.9267 26.161 21.4473 26.4133 22.0564C26.6655 22.6655 26.7316 23.3357 26.6029 23.9823C26.4743 24.6289 26.1569 25.2229 25.6907 25.6891C25.2245 26.1552 24.6306 26.4727 23.984 26.6013C23.3374 26.7299 22.6671 26.6639 22.058 26.4116C21.449 26.1593 20.9284 25.7321 20.5621 25.1839C20.1958 24.6358 20.0003 23.9913 20.0003 23.332C20.0003 22.448 20.3515 21.6001 20.9766 20.975C21.6018 20.3499 22.4496 19.9987 23.3337 19.9987ZM30.0003 33.332H16.667V31.6654C16.667 29.4487 21.117 28.332 23.3337 28.332C25.5503 28.332 30.0003 29.4487 30.0003 31.6654V33.332Z" fill="#0B257C"/>
</svg>
