<svg width="28" height="28" viewBox="0 0 28 28" fill="none" xmlns="http://www.w3.org/2000/svg">
<path d="M5.83333 24.5H22.1667C23.45 24.5 24.5 23.45 24.5 22.1667V14H22.1667V22.1667H5.83333V5.83333H14V3.5H5.83333C4.55 3.5 3.5 4.55 3.5 5.83333V22.1667C3.5 23.45 4.55 24.5 5.83333 24.5Z" fill="#121212"/>
<path d="M5.83333 24.5H22.1667C23.45 24.5 24.5 23.45 24.5 22.1667V14H22.1667V22.1667H5.83333V5.83333H14V3.5H5.83333C4.55 3.5 3.5 4.55 3.5 5.83333V22.1667C3.5 23.45 4.55 24.5 5.83333 24.5Z" fill="black" fill-opacity="0.2"/>
<path d="M5.83333 24.5H22.1667C23.45 24.5 24.5 23.45 24.5 22.1667V14H22.1667V22.1667H5.83333V5.83333H14V3.5H5.83333C4.55 3.5 3.5 4.55 3.5 5.83333V22.1667C3.5 23.45 4.55 24.5 5.83333 24.5Z" fill="black" fill-opacity="0.2"/>
<path d="M5.83333 24.5H22.1667C23.45 24.5 24.5 23.45 24.5 22.1667V14H22.1667V22.1667H5.83333V5.83333H14V3.5H5.83333C4.55 3.5 3.5 4.55 3.5 5.83333V22.1667C3.5 23.45 4.55 24.5 5.83333 24.5Z" fill="black" fill-opacity="0.2"/>
<path d="M5.83333 24.5H22.1667C23.45 24.5 24.5 23.45 24.5 22.1667V14H22.1667V22.1667H5.83333V5.83333H14V3.5H5.83333C4.55 3.5 3.5 4.55 3.5 5.83333V22.1667C3.5 23.45 4.55 24.5 5.83333 24.5Z" fill="black" fill-opacity="0.2"/>
<path d="M5.83333 24.5H22.1667C23.45 24.5 24.5 23.45 24.5 22.1667V14H22.1667V22.1667H5.83333V5.83333H14V3.5H5.83333C4.55 3.5 3.5 4.55 3.5 5.83333V22.1667C3.5 23.45 4.55 24.5 5.83333 24.5Z" fill="black" fill-opacity="0.2"/>
<path d="M5.83333 24.5H22.1667C23.45 24.5 24.5 23.45 24.5 22.1667V14H22.1667V22.1667H5.83333V5.83333H14V3.5H5.83333C4.55 3.5 3.5 4.55 3.5 5.83333V22.1667C3.5 23.45 4.55 24.5 5.83333 24.5Z" fill="black" fill-opacity="0.2"/>
<path d="M5.83333 24.5H22.1667C23.45 24.5 24.5 23.45 24.5 22.1667V14H22.1667V22.1667H5.83333V5.83333H14V3.5H5.83333C4.55 3.5 3.5 4.55 3.5 5.83333V22.1667C3.5 23.45 4.55 24.5 5.83333 24.5Z" fill="black" fill-opacity="0.2"/>
<path d="M5.83333 24.5H22.1667C23.45 24.5 24.5 23.45 24.5 22.1667V14H22.1667V22.1667H5.83333V5.83333H14V3.5H5.83333C4.55 3.5 3.5 4.55 3.5 5.83333V22.1667C3.5 23.45 4.55 24.5 5.83333 24.5Z" fill="black" fill-opacity="0.2"/>
<path d="M5.83333 24.5H22.1667C23.45 24.5 24.5 23.45 24.5 22.1667V14H22.1667V22.1667H5.83333V5.83333H14V3.5H5.83333C4.55 3.5 3.5 4.55 3.5 5.83333V22.1667C3.5 23.45 4.55 24.5 5.83333 24.5Z" fill="black" fill-opacity="0.2"/>
<path d="M5.83333 24.5H22.1667C23.45 24.5 24.5 23.45 24.5 22.1667V14H22.1667V22.1667H5.83333V5.83333H14V3.5H5.83333C4.55 3.5 3.5 4.55 3.5 5.83333V22.1667C3.5 23.45 4.55 24.5 5.83333 24.5Z" fill="black" fill-opacity="0.2"/>
<path d="M5.83333 24.5H22.1667C23.45 24.5 24.5 23.45 24.5 22.1667V14H22.1667V22.1667H5.83333V5.83333H14V3.5H5.83333C4.55 3.5 3.5 4.55 3.5 5.83333V22.1667C3.5 23.45 4.55 24.5 5.83333 24.5Z" fill="black" fill-opacity="0.2"/>
<path d="M8.16604 15.1666V18.6666C8.16604 19.3083 8.69104 19.8333 9.3327 19.8333H12.8327C13.1477 19.8333 13.4394 19.705 13.661 19.495L24.161 8.99497C24.2692 8.88704 24.355 8.75884 24.4135 8.6177C24.4721 8.47657 24.5022 8.32527 24.5022 8.17247C24.5022 8.01968 24.4721 7.86838 24.4135 7.72725C24.355 7.58611 24.2692 7.45791 24.161 7.34997L20.661 3.84997C20.5531 3.74182 20.4249 3.65601 20.2838 3.59747C20.1426 3.53892 19.9913 3.50879 19.8385 3.50879C19.6857 3.50879 19.5344 3.53892 19.3933 3.59747C19.2522 3.65601 19.124 3.74182 19.016 3.84997L8.50437 14.3383C8.39624 14.4473 8.31069 14.5766 8.25264 14.7187C8.19458 14.8609 8.16515 15.0131 8.16604 15.1666ZM19.8327 6.31164L21.6877 8.16664L20.416 9.43831L18.561 7.58331L19.8327 6.31164ZM10.4994 15.645L16.916 9.22831L18.771 11.0833L12.3544 17.5H10.4994V15.645Z" fill="#121212"/>
<path d="M8.16604 15.1666V18.6666C8.16604 19.3083 8.69104 19.8333 9.3327 19.8333H12.8327C13.1477 19.8333 13.4394 19.705 13.661 19.495L24.161 8.99497C24.2692 8.88704 24.355 8.75884 24.4135 8.6177C24.4721 8.47657 24.5022 8.32527 24.5022 8.17247C24.5022 8.01968 24.4721 7.86838 24.4135 7.72725C24.355 7.58611 24.2692 7.45791 24.161 7.34997L20.661 3.84997C20.5531 3.74182 20.4249 3.65601 20.2838 3.59747C20.1426 3.53892 19.9913 3.50879 19.8385 3.50879C19.6857 3.50879 19.5344 3.53892 19.3933 3.59747C19.2522 3.65601 19.124 3.74182 19.016 3.84997L8.50437 14.3383C8.39624 14.4473 8.31069 14.5766 8.25264 14.7187C8.19458 14.8609 8.16515 15.0131 8.16604 15.1666ZM19.8327 6.31164L21.6877 8.16664L20.416 9.43831L18.561 7.58331L19.8327 6.31164ZM10.4994 15.645L16.916 9.22831L18.771 11.0833L12.3544 17.5H10.4994V15.645Z" fill="black" fill-opacity="0.2"/>
<path d="M8.16604 15.1666V18.6666C8.16604 19.3083 8.69104 19.8333 9.3327 19.8333H12.8327C13.1477 19.8333 13.4394 19.705 13.661 19.495L24.161 8.99497C24.2692 8.88704 24.355 8.75884 24.4135 8.6177C24.4721 8.47657 24.5022 8.32527 24.5022 8.17247C24.5022 8.01968 24.4721 7.86838 24.4135 7.72725C24.355 7.58611 24.2692 7.45791 24.161 7.34997L20.661 3.84997C20.5531 3.74182 20.4249 3.65601 20.2838 3.59747C20.1426 3.53892 19.9913 3.50879 19.8385 3.50879C19.6857 3.50879 19.5344 3.53892 19.3933 3.59747C19.2522 3.65601 19.124 3.74182 19.016 3.84997L8.50437 14.3383C8.39624 14.4473 8.31069 14.5766 8.25264 14.7187C8.19458 14.8609 8.16515 15.0131 8.16604 15.1666ZM19.8327 6.31164L21.6877 8.16664L20.416 9.43831L18.561 7.58331L19.8327 6.31164ZM10.4994 15.645L16.916 9.22831L18.771 11.0833L12.3544 17.5H10.4994V15.645Z" fill="black" fill-opacity="0.2"/>
<path d="M8.16604 15.1666V18.6666C8.16604 19.3083 8.69104 19.8333 9.3327 19.8333H12.8327C13.1477 19.8333 13.4394 19.705 13.661 19.495L24.161 8.99497C24.2692 8.88704 24.355 8.75884 24.4135 8.6177C24.4721 8.47657 24.5022 8.32527 24.5022 8.17247C24.5022 8.01968 24.4721 7.86838 24.4135 7.72725C24.355 7.58611 24.2692 7.45791 24.161 7.34997L20.661 3.84997C20.5531 3.74182 20.4249 3.65601 20.2838 3.59747C20.1426 3.53892 19.9913 3.50879 19.8385 3.50879C19.6857 3.50879 19.5344 3.53892 19.3933 3.59747C19.2522 3.65601 19.124 3.74182 19.016 3.84997L8.50437 14.3383C8.39624 14.4473 8.31069 14.5766 8.25264 14.7187C8.19458 14.8609 8.16515 15.0131 8.16604 15.1666ZM19.8327 6.31164L21.6877 8.16664L20.416 9.43831L18.561 7.58331L19.8327 6.31164ZM10.4994 15.645L16.916 9.22831L18.771 11.0833L12.3544 17.5H10.4994V15.645Z" fill="black" fill-opacity="0.2"/>
<path d="M8.16604 15.1666V18.6666C8.16604 19.3083 8.69104 19.8333 9.3327 19.8333H12.8327C13.1477 19.8333 13.4394 19.705 13.661 19.495L24.161 8.99497C24.2692 8.88704 24.355 8.75884 24.4135 8.6177C24.4721 8.47657 24.5022 8.32527 24.5022 8.17247C24.5022 8.01968 24.4721 7.86838 24.4135 7.72725C24.355 7.58611 24.2692 7.45791 24.161 7.34997L20.661 3.84997C20.5531 3.74182 20.4249 3.65601 20.2838 3.59747C20.1426 3.53892 19.9913 3.50879 19.8385 3.50879C19.6857 3.50879 19.5344 3.53892 19.3933 3.59747C19.2522 3.65601 19.124 3.74182 19.016 3.84997L8.50437 14.3383C8.39624 14.4473 8.31069 14.5766 8.25264 14.7187C8.19458 14.8609 8.16515 15.0131 8.16604 15.1666ZM19.8327 6.31164L21.6877 8.16664L20.416 9.43831L18.561 7.58331L19.8327 6.31164ZM10.4994 15.645L16.916 9.22831L18.771 11.0833L12.3544 17.5H10.4994V15.645Z" fill="black" fill-opacity="0.2"/>
<path d="M8.16604 15.1666V18.6666C8.16604 19.3083 8.69104 19.8333 9.3327 19.8333H12.8327C13.1477 19.8333 13.4394 19.705 13.661 19.495L24.161 8.99497C24.2692 8.88704 24.355 8.75884 24.4135 8.6177C24.4721 8.47657 24.5022 8.32527 24.5022 8.17247C24.5022 8.01968 24.4721 7.86838 24.4135 7.72725C24.355 7.58611 24.2692 7.45791 24.161 7.34997L20.661 3.84997C20.5531 3.74182 20.4249 3.65601 20.2838 3.59747C20.1426 3.53892 19.9913 3.50879 19.8385 3.50879C19.6857 3.50879 19.5344 3.53892 19.3933 3.59747C19.2522 3.65601 19.124 3.74182 19.016 3.84997L8.50437 14.3383C8.39624 14.4473 8.31069 14.5766 8.25264 14.7187C8.19458 14.8609 8.16515 15.0131 8.16604 15.1666ZM19.8327 6.31164L21.6877 8.16664L20.416 9.43831L18.561 7.58331L19.8327 6.31164ZM10.4994 15.645L16.916 9.22831L18.771 11.0833L12.3544 17.5H10.4994V15.645Z" fill="black" fill-opacity="0.2"/>
<path d="M8.16604 15.1666V18.6666C8.16604 19.3083 8.69104 19.8333 9.3327 19.8333H12.8327C13.1477 19.8333 13.4394 19.705 13.661 19.495L24.161 8.99497C24.2692 8.88704 24.355 8.75884 24.4135 8.6177C24.4721 8.47657 24.5022 8.32527 24.5022 8.17247C24.5022 8.01968 24.4721 7.86838 24.4135 7.72725C24.355 7.58611 24.2692 7.45791 24.161 7.34997L20.661 3.84997C20.5531 3.74182 20.4249 3.65601 20.2838 3.59747C20.1426 3.53892 19.9913 3.50879 19.8385 3.50879C19.6857 3.50879 19.5344 3.53892 19.3933 3.59747C19.2522 3.65601 19.124 3.74182 19.016 3.84997L8.50437 14.3383C8.39624 14.4473 8.31069 14.5766 8.25264 14.7187C8.19458 14.8609 8.16515 15.0131 8.16604 15.1666ZM19.8327 6.31164L21.6877 8.16664L20.416 9.43831L18.561 7.58331L19.8327 6.31164ZM10.4994 15.645L16.916 9.22831L18.771 11.0833L12.3544 17.5H10.4994V15.645Z" fill="black" fill-opacity="0.2"/>
<path d="M8.16604 15.1666V18.6666C8.16604 19.3083 8.69104 19.8333 9.3327 19.8333H12.8327C13.1477 19.8333 13.4394 19.705 13.661 19.495L24.161 8.99497C24.2692 8.88704 24.355 8.75884 24.4135 8.6177C24.4721 8.47657 24.5022 8.32527 24.5022 8.17247C24.5022 8.01968 24.4721 7.86838 24.4135 7.72725C24.355 7.58611 24.2692 7.45791 24.161 7.34997L20.661 3.84997C20.5531 3.74182 20.4249 3.65601 20.2838 3.59747C20.1426 3.53892 19.9913 3.50879 19.8385 3.50879C19.6857 3.50879 19.5344 3.53892 19.3933 3.59747C19.2522 3.65601 19.124 3.74182 19.016 3.84997L8.50437 14.3383C8.39624 14.4473 8.31069 14.5766 8.25264 14.7187C8.19458 14.8609 8.16515 15.0131 8.16604 15.1666ZM19.8327 6.31164L21.6877 8.16664L20.416 9.43831L18.561 7.58331L19.8327 6.31164ZM10.4994 15.645L16.916 9.22831L18.771 11.0833L12.3544 17.5H10.4994V15.645Z" fill="black" fill-opacity="0.2"/>
<path d="M8.16604 15.1666V18.6666C8.16604 19.3083 8.69104 19.8333 9.3327 19.8333H12.8327C13.1477 19.8333 13.4394 19.705 13.661 19.495L24.161 8.99497C24.2692 8.88704 24.355 8.75884 24.4135 8.6177C24.4721 8.47657 24.5022 8.32527 24.5022 8.17247C24.5022 8.01968 24.4721 7.86838 24.4135 7.72725C24.355 7.58611 24.2692 7.45791 24.161 7.34997L20.661 3.84997C20.5531 3.74182 20.4249 3.65601 20.2838 3.59747C20.1426 3.53892 19.9913 3.50879 19.8385 3.50879C19.6857 3.50879 19.5344 3.53892 19.3933 3.59747C19.2522 3.65601 19.124 3.74182 19.016 3.84997L8.50437 14.3383C8.39624 14.4473 8.31069 14.5766 8.25264 14.7187C8.19458 14.8609 8.16515 15.0131 8.16604 15.1666ZM19.8327 6.31164L21.6877 8.16664L20.416 9.43831L18.561 7.58331L19.8327 6.31164ZM10.4994 15.645L16.916 9.22831L18.771 11.0833L12.3544 17.5H10.4994V15.645Z" fill="black" fill-opacity="0.2"/>
<path d="M8.16604 15.1666V18.6666C8.16604 19.3083 8.69104 19.8333 9.3327 19.8333H12.8327C13.1477 19.8333 13.4394 19.705 13.661 19.495L24.161 8.99497C24.2692 8.88704 24.355 8.75884 24.4135 8.6177C24.4721 8.47657 24.5022 8.32527 24.5022 8.17247C24.5022 8.01968 24.4721 7.86838 24.4135 7.72725C24.355 7.58611 24.2692 7.45791 24.161 7.34997L20.661 3.84997C20.5531 3.74182 20.4249 3.65601 20.2838 3.59747C20.1426 3.53892 19.9913 3.50879 19.8385 3.50879C19.6857 3.50879 19.5344 3.53892 19.3933 3.59747C19.2522 3.65601 19.124 3.74182 19.016 3.84997L8.50437 14.3383C8.39624 14.4473 8.31069 14.5766 8.25264 14.7187C8.19458 14.8609 8.16515 15.0131 8.16604 15.1666ZM19.8327 6.31164L21.6877 8.16664L20.416 9.43831L18.561 7.58331L19.8327 6.31164ZM10.4994 15.645L16.916 9.22831L18.771 11.0833L12.3544 17.5H10.4994V15.645Z" fill="black" fill-opacity="0.2"/>
<path d="M8.16604 15.1666V18.6666C8.16604 19.3083 8.69104 19.8333 9.3327 19.8333H12.8327C13.1477 19.8333 13.4394 19.705 13.661 19.495L24.161 8.99497C24.2692 8.88704 24.355 8.75884 24.4135 8.6177C24.4721 8.47657 24.5022 8.32527 24.5022 8.17247C24.5022 8.01968 24.4721 7.86838 24.4135 7.72725C24.355 7.58611 24.2692 7.45791 24.161 7.34997L20.661 3.84997C20.5531 3.74182 20.4249 3.65601 20.2838 3.59747C20.1426 3.53892 19.9913 3.50879 19.8385 3.50879C19.6857 3.50879 19.5344 3.53892 19.3933 3.59747C19.2522 3.65601 19.124 3.74182 19.016 3.84997L8.50437 14.3383C8.39624 14.4473 8.31069 14.5766 8.25264 14.7187C8.19458 14.8609 8.16515 15.0131 8.16604 15.1666ZM19.8327 6.31164L21.6877 8.16664L20.416 9.43831L18.561 7.58331L19.8327 6.31164ZM10.4994 15.645L16.916 9.22831L18.771 11.0833L12.3544 17.5H10.4994V15.645Z" fill="black" fill-opacity="0.2"/>
<path d="M8.16604 15.1666V18.6666C8.16604 19.3083 8.69104 19.8333 9.3327 19.8333H12.8327C13.1477 19.8333 13.4394 19.705 13.661 19.495L24.161 8.99497C24.2692 8.88704 24.355 8.75884 24.4135 8.6177C24.4721 8.47657 24.5022 8.32527 24.5022 8.17247C24.5022 8.01968 24.4721 7.86838 24.4135 7.72725C24.355 7.58611 24.2692 7.45791 24.161 7.34997L20.661 3.84997C20.5531 3.74182 20.4249 3.65601 20.2838 3.59747C20.1426 3.53892 19.9913 3.50879 19.8385 3.50879C19.6857 3.50879 19.5344 3.53892 19.3933 3.59747C19.2522 3.65601 19.124 3.74182 19.016 3.84997L8.50437 14.3383C8.39624 14.4473 8.31069 14.5766 8.25264 14.7187C8.19458 14.8609 8.16515 15.0131 8.16604 15.1666ZM19.8327 6.31164L21.6877 8.16664L20.416 9.43831L18.561 7.58331L19.8327 6.31164ZM10.4994 15.645L16.916 9.22831L18.771 11.0833L12.3544 17.5H10.4994V15.645Z" fill="black" fill-opacity="0.2"/>
</svg>
