<svg width="36" height="36" viewBox="0 0 36 36" fill="none" xmlns="http://www.w3.org/2000/svg">
<path d="M7.19974 30H27.8002C29.7674 30 31 28.6323 31 26.9096C31.0023 26.3761 30.8574 25.8516 30.5804 25.3901L20.2605 7.55789C19.6703 6.53172 18.5949 6 17.5067 6C16.4314 6 15.3303 6.53172 14.7395 7.55789L4.43305 25.4025C4.14435 25.8835 4 26.3903 4 26.9102C4 28.6323 5.24599 30 7.19974 30ZM17.5067 21.3244C16.8118 21.3244 16.4314 20.9445 16.4051 20.2609L16.2215 14.0045C16.1953 13.3204 16.7458 12.8135 17.4933 12.8135C18.2279 12.8135 18.8047 13.3328 18.7784 14.0169L18.582 20.2609C18.5557 20.9574 18.1753 21.3244 17.5067 21.3244ZM17.5067 25.998C16.7458 25.998 16.038 25.4155 16.038 24.6298C16.038 23.8441 16.7329 23.2627 17.5067 23.2627C18.2805 23.2627 18.9754 23.8322 18.9754 24.6298C18.9754 25.4279 18.267 25.998 17.5067 25.998Z" fill="#121212"/>
<path d="M7.19974 30H27.8002C29.7674 30 31 28.6323 31 26.9096C31.0023 26.3761 30.8574 25.8516 30.5804 25.3901L20.2605 7.55789C19.6703 6.53172 18.5949 6 17.5067 6C16.4314 6 15.3303 6.53172 14.7395 7.55789L4.43305 25.4025C4.14435 25.8835 4 26.3903 4 26.9102C4 28.6323 5.24599 30 7.19974 30ZM17.5067 21.3244C16.8118 21.3244 16.4314 20.9445 16.4051 20.2609L16.2215 14.0045C16.1953 13.3204 16.7458 12.8135 17.4933 12.8135C18.2279 12.8135 18.8047 13.3328 18.7784 14.0169L18.582 20.2609C18.5557 20.9574 18.1753 21.3244 17.5067 21.3244ZM17.5067 25.998C16.7458 25.998 16.038 25.4155 16.038 24.6298C16.038 23.8441 16.7329 23.2627 17.5067 23.2627C18.2805 23.2627 18.9754 23.8322 18.9754 24.6298C18.9754 25.4279 18.267 25.998 17.5067 25.998Z" fill="black" fill-opacity="0.2"/>
<path d="M7.19974 30H27.8002C29.7674 30 31 28.6323 31 26.9096C31.0023 26.3761 30.8574 25.8516 30.5804 25.3901L20.2605 7.55789C19.6703 6.53172 18.5949 6 17.5067 6C16.4314 6 15.3303 6.53172 14.7395 7.55789L4.43305 25.4025C4.14435 25.8835 4 26.3903 4 26.9102C4 28.6323 5.24599 30 7.19974 30ZM17.5067 21.3244C16.8118 21.3244 16.4314 20.9445 16.4051 20.2609L16.2215 14.0045C16.1953 13.3204 16.7458 12.8135 17.4933 12.8135C18.2279 12.8135 18.8047 13.3328 18.7784 14.0169L18.582 20.2609C18.5557 20.9574 18.1753 21.3244 17.5067 21.3244ZM17.5067 25.998C16.7458 25.998 16.038 25.4155 16.038 24.6298C16.038 23.8441 16.7329 23.2627 17.5067 23.2627C18.2805 23.2627 18.9754 23.8322 18.9754 24.6298C18.9754 25.4279 18.267 25.998 17.5067 25.998Z" fill="black" fill-opacity="0.2"/>
<path d="M7.19974 30H27.8002C29.7674 30 31 28.6323 31 26.9096C31.0023 26.3761 30.8574 25.8516 30.5804 25.3901L20.2605 7.55789C19.6703 6.53172 18.5949 6 17.5067 6C16.4314 6 15.3303 6.53172 14.7395 7.55789L4.43305 25.4025C4.14435 25.8835 4 26.3903 4 26.9102C4 28.6323 5.24599 30 7.19974 30ZM17.5067 21.3244C16.8118 21.3244 16.4314 20.9445 16.4051 20.2609L16.2215 14.0045C16.1953 13.3204 16.7458 12.8135 17.4933 12.8135C18.2279 12.8135 18.8047 13.3328 18.7784 14.0169L18.582 20.2609C18.5557 20.9574 18.1753 21.3244 17.5067 21.3244ZM17.5067 25.998C16.7458 25.998 16.038 25.4155 16.038 24.6298C16.038 23.8441 16.7329 23.2627 17.5067 23.2627C18.2805 23.2627 18.9754 23.8322 18.9754 24.6298C18.9754 25.4279 18.267 25.998 17.5067 25.998Z" fill="black" fill-opacity="0.2"/>
<path d="M7.19974 30H27.8002C29.7674 30 31 28.6323 31 26.9096C31.0023 26.3761 30.8574 25.8516 30.5804 25.3901L20.2605 7.55789C19.6703 6.53172 18.5949 6 17.5067 6C16.4314 6 15.3303 6.53172 14.7395 7.55789L4.43305 25.4025C4.14435 25.8835 4 26.3903 4 26.9102C4 28.6323 5.24599 30 7.19974 30ZM17.5067 21.3244C16.8118 21.3244 16.4314 20.9445 16.4051 20.2609L16.2215 14.0045C16.1953 13.3204 16.7458 12.8135 17.4933 12.8135C18.2279 12.8135 18.8047 13.3328 18.7784 14.0169L18.582 20.2609C18.5557 20.9574 18.1753 21.3244 17.5067 21.3244ZM17.5067 25.998C16.7458 25.998 16.038 25.4155 16.038 24.6298C16.038 23.8441 16.7329 23.2627 17.5067 23.2627C18.2805 23.2627 18.9754 23.8322 18.9754 24.6298C18.9754 25.4279 18.267 25.998 17.5067 25.998Z" fill="black" fill-opacity="0.2"/>
<path d="M7.19974 30H27.8002C29.7674 30 31 28.6323 31 26.9096C31.0023 26.3761 30.8574 25.8516 30.5804 25.3901L20.2605 7.55789C19.6703 6.53172 18.5949 6 17.5067 6C16.4314 6 15.3303 6.53172 14.7395 7.55789L4.43305 25.4025C4.14435 25.8835 4 26.3903 4 26.9102C4 28.6323 5.24599 30 7.19974 30ZM17.5067 21.3244C16.8118 21.3244 16.4314 20.9445 16.4051 20.2609L16.2215 14.0045C16.1953 13.3204 16.7458 12.8135 17.4933 12.8135C18.2279 12.8135 18.8047 13.3328 18.7784 14.0169L18.582 20.2609C18.5557 20.9574 18.1753 21.3244 17.5067 21.3244ZM17.5067 25.998C16.7458 25.998 16.038 25.4155 16.038 24.6298C16.038 23.8441 16.7329 23.2627 17.5067 23.2627C18.2805 23.2627 18.9754 23.8322 18.9754 24.6298C18.9754 25.4279 18.267 25.998 17.5067 25.998Z" fill="black" fill-opacity="0.2"/>
<path d="M7.19974 30H27.8002C29.7674 30 31 28.6323 31 26.9096C31.0023 26.3761 30.8574 25.8516 30.5804 25.3901L20.2605 7.55789C19.6703 6.53172 18.5949 6 17.5067 6C16.4314 6 15.3303 6.53172 14.7395 7.55789L4.43305 25.4025C4.14435 25.8835 4 26.3903 4 26.9102C4 28.6323 5.24599 30 7.19974 30ZM17.5067 21.3244C16.8118 21.3244 16.4314 20.9445 16.4051 20.2609L16.2215 14.0045C16.1953 13.3204 16.7458 12.8135 17.4933 12.8135C18.2279 12.8135 18.8047 13.3328 18.7784 14.0169L18.582 20.2609C18.5557 20.9574 18.1753 21.3244 17.5067 21.3244ZM17.5067 25.998C16.7458 25.998 16.038 25.4155 16.038 24.6298C16.038 23.8441 16.7329 23.2627 17.5067 23.2627C18.2805 23.2627 18.9754 23.8322 18.9754 24.6298C18.9754 25.4279 18.267 25.998 17.5067 25.998Z" fill="black" fill-opacity="0.2"/>
<path d="M7.19974 30H27.8002C29.7674 30 31 28.6323 31 26.9096C31.0023 26.3761 30.8574 25.8516 30.5804 25.3901L20.2605 7.55789C19.6703 6.53172 18.5949 6 17.5067 6C16.4314 6 15.3303 6.53172 14.7395 7.55789L4.43305 25.4025C4.14435 25.8835 4 26.3903 4 26.9102C4 28.6323 5.24599 30 7.19974 30ZM17.5067 21.3244C16.8118 21.3244 16.4314 20.9445 16.4051 20.2609L16.2215 14.0045C16.1953 13.3204 16.7458 12.8135 17.4933 12.8135C18.2279 12.8135 18.8047 13.3328 18.7784 14.0169L18.582 20.2609C18.5557 20.9574 18.1753 21.3244 17.5067 21.3244ZM17.5067 25.998C16.7458 25.998 16.038 25.4155 16.038 24.6298C16.038 23.8441 16.7329 23.2627 17.5067 23.2627C18.2805 23.2627 18.9754 23.8322 18.9754 24.6298C18.9754 25.4279 18.267 25.998 17.5067 25.998Z" fill="black" fill-opacity="0.2"/>
<path d="M7.19974 30H27.8002C29.7674 30 31 28.6323 31 26.9096C31.0023 26.3761 30.8574 25.8516 30.5804 25.3901L20.2605 7.55789C19.6703 6.53172 18.5949 6 17.5067 6C16.4314 6 15.3303 6.53172 14.7395 7.55789L4.43305 25.4025C4.14435 25.8835 4 26.3903 4 26.9102C4 28.6323 5.24599 30 7.19974 30ZM17.5067 21.3244C16.8118 21.3244 16.4314 20.9445 16.4051 20.2609L16.2215 14.0045C16.1953 13.3204 16.7458 12.8135 17.4933 12.8135C18.2279 12.8135 18.8047 13.3328 18.7784 14.0169L18.582 20.2609C18.5557 20.9574 18.1753 21.3244 17.5067 21.3244ZM17.5067 25.998C16.7458 25.998 16.038 25.4155 16.038 24.6298C16.038 23.8441 16.7329 23.2627 17.5067 23.2627C18.2805 23.2627 18.9754 23.8322 18.9754 24.6298C18.9754 25.4279 18.267 25.998 17.5067 25.998Z" fill="black" fill-opacity="0.2"/>
<path d="M7.19974 30H27.8002C29.7674 30 31 28.6323 31 26.9096C31.0023 26.3761 30.8574 25.8516 30.5804 25.3901L20.2605 7.55789C19.6703 6.53172 18.5949 6 17.5067 6C16.4314 6 15.3303 6.53172 14.7395 7.55789L4.43305 25.4025C4.14435 25.8835 4 26.3903 4 26.9102C4 28.6323 5.24599 30 7.19974 30ZM17.5067 21.3244C16.8118 21.3244 16.4314 20.9445 16.4051 20.2609L16.2215 14.0045C16.1953 13.3204 16.7458 12.8135 17.4933 12.8135C18.2279 12.8135 18.8047 13.3328 18.7784 14.0169L18.582 20.2609C18.5557 20.9574 18.1753 21.3244 17.5067 21.3244ZM17.5067 25.998C16.7458 25.998 16.038 25.4155 16.038 24.6298C16.038 23.8441 16.7329 23.2627 17.5067 23.2627C18.2805 23.2627 18.9754 23.8322 18.9754 24.6298C18.9754 25.4279 18.267 25.998 17.5067 25.998Z" fill="black" fill-opacity="0.2"/>
<path d="M7.19974 30H27.8002C29.7674 30 31 28.6323 31 26.9096C31.0023 26.3761 30.8574 25.8516 30.5804 25.3901L20.2605 7.55789C19.6703 6.53172 18.5949 6 17.5067 6C16.4314 6 15.3303 6.53172 14.7395 7.55789L4.43305 25.4025C4.14435 25.8835 4 26.3903 4 26.9102C4 28.6323 5.24599 30 7.19974 30ZM17.5067 21.3244C16.8118 21.3244 16.4314 20.9445 16.4051 20.2609L16.2215 14.0045C16.1953 13.3204 16.7458 12.8135 17.4933 12.8135C18.2279 12.8135 18.8047 13.3328 18.7784 14.0169L18.582 20.2609C18.5557 20.9574 18.1753 21.3244 17.5067 21.3244ZM17.5067 25.998C16.7458 25.998 16.038 25.4155 16.038 24.6298C16.038 23.8441 16.7329 23.2627 17.5067 23.2627C18.2805 23.2627 18.9754 23.8322 18.9754 24.6298C18.9754 25.4279 18.267 25.998 17.5067 25.998Z" fill="black" fill-opacity="0.2"/>
<path d="M7.19974 30H27.8002C29.7674 30 31 28.6323 31 26.9096C31.0023 26.3761 30.8574 25.8516 30.5804 25.3901L20.2605 7.55789C19.6703 6.53172 18.5949 6 17.5067 6C16.4314 6 15.3303 6.53172 14.7395 7.55789L4.43305 25.4025C4.14435 25.8835 4 26.3903 4 26.9102C4 28.6323 5.24599 30 7.19974 30ZM17.5067 21.3244C16.8118 21.3244 16.4314 20.9445 16.4051 20.2609L16.2215 14.0045C16.1953 13.3204 16.7458 12.8135 17.4933 12.8135C18.2279 12.8135 18.8047 13.3328 18.7784 14.0169L18.582 20.2609C18.5557 20.9574 18.1753 21.3244 17.5067 21.3244ZM17.5067 25.998C16.7458 25.998 16.038 25.4155 16.038 24.6298C16.038 23.8441 16.7329 23.2627 17.5067 23.2627C18.2805 23.2627 18.9754 23.8322 18.9754 24.6298C18.9754 25.4279 18.267 25.998 17.5067 25.998Z" fill="black" fill-opacity="0.2"/>
</svg>
