<svg width="40" height="40" viewBox="0 0 40 40" fill="none" xmlns="http://www.w3.org/2000/svg">
<path d="M32.19 20.44C33.615 19 34.5 17.05 34.5 14.875C34.5 12.7864 33.6703 10.7834 32.1935 9.30656C30.7166 7.82971 28.7136 7.00003 26.625 7.00003C24 7.00003 21.675 8.27503 20.25 10.255C19.5227 9.24478 18.5649 8.4225 17.4562 7.85642C16.3475 7.29033 15.1198 6.99675 13.875 7.00003C11.7864 7.00003 9.78338 7.82971 8.30653 9.30656C6.82969 10.7834 6 12.7864 6 14.875C6 17.05 6.885 19 8.31 20.44L20.25 32.38L32.19 20.44Z" fill="#0B257C"/>
</svg>
