<svg width="40" height="40" viewBox="0 0 40 40" fill="none" xmlns="http://www.w3.org/2000/svg">
<path d="M10.3333 36.3333C9.41667 36.3333 8.63222 36.0072 7.98 35.355C7.32778 34.7028 7.00111 33.9178 7 33V6.33333C7 5.41667 7.32667 4.63222 7.98 3.98C8.63333 3.32778 9.41778 3.00111 10.3333 3H30.3333C31.25 3 32.035 3.32667 32.6883 3.98C33.3417 4.63333 33.6678 5.41778 33.6667 6.33333V33C33.6667 33.9167 33.3406 34.7017 32.6883 35.355C32.0361 36.0083 31.2511 36.3344 30.3333 36.3333H10.3333ZM18.6667 18L22.8333 15.5L27 18V6.33333H18.6667V18Z" fill="#0B257C"/>
</svg>
