<svg width="40" height="40" viewBox="0 0 40 40" fill="none" xmlns="http://www.w3.org/2000/svg">
<path d="M27.25 9C27.25 8.30964 27.8096 7.75 28.5 7.75H31.5C32.6046 7.75 33.5 8.64543 33.5 9.75V34.5C33.5 35.6046 32.6046 36.5 31.5 36.5H8C6.89543 36.5 6 35.6046 6 34.5V9.75C6 8.64543 6.89543 7.75 8 7.75H11C11.6904 7.75 12.25 8.30964 12.25 9C12.25 9.69036 12.8096 10.25 13.5 10.25H26C26.6904 10.25 27.25 9.69036 27.25 9ZM11 19C11 19.6904 11.5596 20.25 12.25 20.25H27.25C27.9404 20.25 28.5 19.6904 28.5 19C28.5 18.3096 27.9404 17.75 27.25 17.75H12.25C11.5596 17.75 11 18.3096 11 19ZM11 29C11 29.6904 11.5596 30.25 12.25 30.25H27.25C27.9404 30.25 28.5 29.6904 28.5 29C28.5 28.3096 27.9404 27.75 27.25 27.75H12.25C11.5596 27.75 11 28.3096 11 29ZM16.625 7.75C15.5895 7.75 14.75 6.91053 14.75 5.875C14.75 4.83947 15.5895 4 16.625 4H22.875C23.9105 4 24.75 4.83947 24.75 5.875C24.75 6.91053 23.9105 7.75 22.875 7.75H16.625Z" fill="#0B257C"/>
</svg>
