<svg width="36" height="36" viewBox="0 0 36 36" fill="none" xmlns="http://www.w3.org/2000/svg">
<path d="M17.2808 25.3922L26.1557 16.5173C24.6627 15.8936 23.3067 14.9828 22.1646 13.8366C21.0179 12.6943 20.1066 11.3379 19.4827 9.84433L10.6078 18.7192C9.91545 19.4116 9.56867 19.7584 9.27108 20.14C8.91996 20.5905 8.61862 21.0777 8.37231 21.5931C8.16472 22.0299 8.00992 22.4955 7.70033 23.4242L6.06599 28.3237C5.99077 28.548 5.97961 28.7889 6.03377 29.0192C6.08792 29.2495 6.20524 29.4601 6.37255 29.6275C6.53985 29.7948 6.7505 29.9121 6.98082 29.9662C7.21115 30.0204 7.45201 30.0092 7.67633 29.934L12.5758 28.2997C13.5057 27.9901 13.9701 27.8353 14.4069 27.6277C14.9245 27.3813 15.4089 27.0817 15.86 26.7289C16.2416 26.4313 16.5884 26.0845 17.2808 25.3922ZM28.618 14.055C29.5029 13.1701 30 11.9699 30 10.7185C30 9.46707 29.5029 8.26691 28.618 7.38202C27.7331 6.49713 26.5329 6 25.2815 6C24.0301 6 22.8299 6.49713 21.945 7.38202L20.8807 8.44638L20.9263 8.57957C21.4506 10.0805 22.309 11.4427 23.4366 12.5634C24.5909 13.7248 26.0007 14.6 27.5536 15.1193L28.618 14.055Z" fill="#121212"/>
<path d="M17.2808 25.3922L26.1557 16.5173C24.6627 15.8936 23.3067 14.9828 22.1646 13.8366C21.0179 12.6943 20.1066 11.3379 19.4827 9.84433L10.6078 18.7192C9.91545 19.4116 9.56867 19.7584 9.27108 20.14C8.91996 20.5905 8.61862 21.0777 8.37231 21.5931C8.16472 22.0299 8.00992 22.4955 7.70033 23.4242L6.06599 28.3237C5.99077 28.548 5.97961 28.7889 6.03377 29.0192C6.08792 29.2495 6.20524 29.4601 6.37255 29.6275C6.53985 29.7948 6.7505 29.9121 6.98082 29.9662C7.21115 30.0204 7.45201 30.0092 7.67633 29.934L12.5758 28.2997C13.5057 27.9901 13.9701 27.8353 14.4069 27.6277C14.9245 27.3813 15.4089 27.0817 15.86 26.7289C16.2416 26.4313 16.5884 26.0845 17.2808 25.3922ZM28.618 14.055C29.5029 13.1701 30 11.9699 30 10.7185C30 9.46707 29.5029 8.26691 28.618 7.38202C27.7331 6.49713 26.5329 6 25.2815 6C24.0301 6 22.8299 6.49713 21.945 7.38202L20.8807 8.44638L20.9263 8.57957C21.4506 10.0805 22.309 11.4427 23.4366 12.5634C24.5909 13.7248 26.0007 14.6 27.5536 15.1193L28.618 14.055Z" fill="black" fill-opacity="0.2"/>
<path d="M17.2808 25.3922L26.1557 16.5173C24.6627 15.8936 23.3067 14.9828 22.1646 13.8366C21.0179 12.6943 20.1066 11.3379 19.4827 9.84433L10.6078 18.7192C9.91545 19.4116 9.56867 19.7584 9.27108 20.14C8.91996 20.5905 8.61862 21.0777 8.37231 21.5931C8.16472 22.0299 8.00992 22.4955 7.70033 23.4242L6.06599 28.3237C5.99077 28.548 5.97961 28.7889 6.03377 29.0192C6.08792 29.2495 6.20524 29.4601 6.37255 29.6275C6.53985 29.7948 6.7505 29.9121 6.98082 29.9662C7.21115 30.0204 7.45201 30.0092 7.67633 29.934L12.5758 28.2997C13.5057 27.9901 13.9701 27.8353 14.4069 27.6277C14.9245 27.3813 15.4089 27.0817 15.86 26.7289C16.2416 26.4313 16.5884 26.0845 17.2808 25.3922ZM28.618 14.055C29.5029 13.1701 30 11.9699 30 10.7185C30 9.46707 29.5029 8.26691 28.618 7.38202C27.7331 6.49713 26.5329 6 25.2815 6C24.0301 6 22.8299 6.49713 21.945 7.38202L20.8807 8.44638L20.9263 8.57957C21.4506 10.0805 22.309 11.4427 23.4366 12.5634C24.5909 13.7248 26.0007 14.6 27.5536 15.1193L28.618 14.055Z" fill="black" fill-opacity="0.2"/>
<path d="M17.2808 25.3922L26.1557 16.5173C24.6627 15.8936 23.3067 14.9828 22.1646 13.8366C21.0179 12.6943 20.1066 11.3379 19.4827 9.84433L10.6078 18.7192C9.91545 19.4116 9.56867 19.7584 9.27108 20.14C8.91996 20.5905 8.61862 21.0777 8.37231 21.5931C8.16472 22.0299 8.00992 22.4955 7.70033 23.4242L6.06599 28.3237C5.99077 28.548 5.97961 28.7889 6.03377 29.0192C6.08792 29.2495 6.20524 29.4601 6.37255 29.6275C6.53985 29.7948 6.7505 29.9121 6.98082 29.9662C7.21115 30.0204 7.45201 30.0092 7.67633 29.934L12.5758 28.2997C13.5057 27.9901 13.9701 27.8353 14.4069 27.6277C14.9245 27.3813 15.4089 27.0817 15.86 26.7289C16.2416 26.4313 16.5884 26.0845 17.2808 25.3922ZM28.618 14.055C29.5029 13.1701 30 11.9699 30 10.7185C30 9.46707 29.5029 8.26691 28.618 7.38202C27.7331 6.49713 26.5329 6 25.2815 6C24.0301 6 22.8299 6.49713 21.945 7.38202L20.8807 8.44638L20.9263 8.57957C21.4506 10.0805 22.309 11.4427 23.4366 12.5634C24.5909 13.7248 26.0007 14.6 27.5536 15.1193L28.618 14.055Z" fill="black" fill-opacity="0.2"/>
<path d="M17.2808 25.3922L26.1557 16.5173C24.6627 15.8936 23.3067 14.9828 22.1646 13.8366C21.0179 12.6943 20.1066 11.3379 19.4827 9.84433L10.6078 18.7192C9.91545 19.4116 9.56867 19.7584 9.27108 20.14C8.91996 20.5905 8.61862 21.0777 8.37231 21.5931C8.16472 22.0299 8.00992 22.4955 7.70033 23.4242L6.06599 28.3237C5.99077 28.548 5.97961 28.7889 6.03377 29.0192C6.08792 29.2495 6.20524 29.4601 6.37255 29.6275C6.53985 29.7948 6.7505 29.9121 6.98082 29.9662C7.21115 30.0204 7.45201 30.0092 7.67633 29.934L12.5758 28.2997C13.5057 27.9901 13.9701 27.8353 14.4069 27.6277C14.9245 27.3813 15.4089 27.0817 15.86 26.7289C16.2416 26.4313 16.5884 26.0845 17.2808 25.3922ZM28.618 14.055C29.5029 13.1701 30 11.9699 30 10.7185C30 9.46707 29.5029 8.26691 28.618 7.38202C27.7331 6.49713 26.5329 6 25.2815 6C24.0301 6 22.8299 6.49713 21.945 7.38202L20.8807 8.44638L20.9263 8.57957C21.4506 10.0805 22.309 11.4427 23.4366 12.5634C24.5909 13.7248 26.0007 14.6 27.5536 15.1193L28.618 14.055Z" fill="black" fill-opacity="0.2"/>
<path d="M17.2808 25.3922L26.1557 16.5173C24.6627 15.8936 23.3067 14.9828 22.1646 13.8366C21.0179 12.6943 20.1066 11.3379 19.4827 9.84433L10.6078 18.7192C9.91545 19.4116 9.56867 19.7584 9.27108 20.14C8.91996 20.5905 8.61862 21.0777 8.37231 21.5931C8.16472 22.0299 8.00992 22.4955 7.70033 23.4242L6.06599 28.3237C5.99077 28.548 5.97961 28.7889 6.03377 29.0192C6.08792 29.2495 6.20524 29.4601 6.37255 29.6275C6.53985 29.7948 6.7505 29.9121 6.98082 29.9662C7.21115 30.0204 7.45201 30.0092 7.67633 29.934L12.5758 28.2997C13.5057 27.9901 13.9701 27.8353 14.4069 27.6277C14.9245 27.3813 15.4089 27.0817 15.86 26.7289C16.2416 26.4313 16.5884 26.0845 17.2808 25.3922ZM28.618 14.055C29.5029 13.1701 30 11.9699 30 10.7185C30 9.46707 29.5029 8.26691 28.618 7.38202C27.7331 6.49713 26.5329 6 25.2815 6C24.0301 6 22.8299 6.49713 21.945 7.38202L20.8807 8.44638L20.9263 8.57957C21.4506 10.0805 22.309 11.4427 23.4366 12.5634C24.5909 13.7248 26.0007 14.6 27.5536 15.1193L28.618 14.055Z" fill="black" fill-opacity="0.2"/>
<path d="M17.2808 25.3922L26.1557 16.5173C24.6627 15.8936 23.3067 14.9828 22.1646 13.8366C21.0179 12.6943 20.1066 11.3379 19.4827 9.84433L10.6078 18.7192C9.91545 19.4116 9.56867 19.7584 9.27108 20.14C8.91996 20.5905 8.61862 21.0777 8.37231 21.5931C8.16472 22.0299 8.00992 22.4955 7.70033 23.4242L6.06599 28.3237C5.99077 28.548 5.97961 28.7889 6.03377 29.0192C6.08792 29.2495 6.20524 29.4601 6.37255 29.6275C6.53985 29.7948 6.7505 29.9121 6.98082 29.9662C7.21115 30.0204 7.45201 30.0092 7.67633 29.934L12.5758 28.2997C13.5057 27.9901 13.9701 27.8353 14.4069 27.6277C14.9245 27.3813 15.4089 27.0817 15.86 26.7289C16.2416 26.4313 16.5884 26.0845 17.2808 25.3922ZM28.618 14.055C29.5029 13.1701 30 11.9699 30 10.7185C30 9.46707 29.5029 8.26691 28.618 7.38202C27.7331 6.49713 26.5329 6 25.2815 6C24.0301 6 22.8299 6.49713 21.945 7.38202L20.8807 8.44638L20.9263 8.57957C21.4506 10.0805 22.309 11.4427 23.4366 12.5634C24.5909 13.7248 26.0007 14.6 27.5536 15.1193L28.618 14.055Z" fill="black" fill-opacity="0.2"/>
<path d="M17.2808 25.3922L26.1557 16.5173C24.6627 15.8936 23.3067 14.9828 22.1646 13.8366C21.0179 12.6943 20.1066 11.3379 19.4827 9.84433L10.6078 18.7192C9.91545 19.4116 9.56867 19.7584 9.27108 20.14C8.91996 20.5905 8.61862 21.0777 8.37231 21.5931C8.16472 22.0299 8.00992 22.4955 7.70033 23.4242L6.06599 28.3237C5.99077 28.548 5.97961 28.7889 6.03377 29.0192C6.08792 29.2495 6.20524 29.4601 6.37255 29.6275C6.53985 29.7948 6.7505 29.9121 6.98082 29.9662C7.21115 30.0204 7.45201 30.0092 7.67633 29.934L12.5758 28.2997C13.5057 27.9901 13.9701 27.8353 14.4069 27.6277C14.9245 27.3813 15.4089 27.0817 15.86 26.7289C16.2416 26.4313 16.5884 26.0845 17.2808 25.3922ZM28.618 14.055C29.5029 13.1701 30 11.9699 30 10.7185C30 9.46707 29.5029 8.26691 28.618 7.38202C27.7331 6.49713 26.5329 6 25.2815 6C24.0301 6 22.8299 6.49713 21.945 7.38202L20.8807 8.44638L20.9263 8.57957C21.4506 10.0805 22.309 11.4427 23.4366 12.5634C24.5909 13.7248 26.0007 14.6 27.5536 15.1193L28.618 14.055Z" fill="black" fill-opacity="0.2"/>
<path d="M17.2808 25.3922L26.1557 16.5173C24.6627 15.8936 23.3067 14.9828 22.1646 13.8366C21.0179 12.6943 20.1066 11.3379 19.4827 9.84433L10.6078 18.7192C9.91545 19.4116 9.56867 19.7584 9.27108 20.14C8.91996 20.5905 8.61862 21.0777 8.37231 21.5931C8.16472 22.0299 8.00992 22.4955 7.70033 23.4242L6.06599 28.3237C5.99077 28.548 5.97961 28.7889 6.03377 29.0192C6.08792 29.2495 6.20524 29.4601 6.37255 29.6275C6.53985 29.7948 6.7505 29.9121 6.98082 29.9662C7.21115 30.0204 7.45201 30.0092 7.67633 29.934L12.5758 28.2997C13.5057 27.9901 13.9701 27.8353 14.4069 27.6277C14.9245 27.3813 15.4089 27.0817 15.86 26.7289C16.2416 26.4313 16.5884 26.0845 17.2808 25.3922ZM28.618 14.055C29.5029 13.1701 30 11.9699 30 10.7185C30 9.46707 29.5029 8.26691 28.618 7.38202C27.7331 6.49713 26.5329 6 25.2815 6C24.0301 6 22.8299 6.49713 21.945 7.38202L20.8807 8.44638L20.9263 8.57957C21.4506 10.0805 22.309 11.4427 23.4366 12.5634C24.5909 13.7248 26.0007 14.6 27.5536 15.1193L28.618 14.055Z" fill="black" fill-opacity="0.2"/>
<path d="M17.2808 25.3922L26.1557 16.5173C24.6627 15.8936 23.3067 14.9828 22.1646 13.8366C21.0179 12.6943 20.1066 11.3379 19.4827 9.84433L10.6078 18.7192C9.91545 19.4116 9.56867 19.7584 9.27108 20.14C8.91996 20.5905 8.61862 21.0777 8.37231 21.5931C8.16472 22.0299 8.00992 22.4955 7.70033 23.4242L6.06599 28.3237C5.99077 28.548 5.97961 28.7889 6.03377 29.0192C6.08792 29.2495 6.20524 29.4601 6.37255 29.6275C6.53985 29.7948 6.7505 29.9121 6.98082 29.9662C7.21115 30.0204 7.45201 30.0092 7.67633 29.934L12.5758 28.2997C13.5057 27.9901 13.9701 27.8353 14.4069 27.6277C14.9245 27.3813 15.4089 27.0817 15.86 26.7289C16.2416 26.4313 16.5884 26.0845 17.2808 25.3922ZM28.618 14.055C29.5029 13.1701 30 11.9699 30 10.7185C30 9.46707 29.5029 8.26691 28.618 7.38202C27.7331 6.49713 26.5329 6 25.2815 6C24.0301 6 22.8299 6.49713 21.945 7.38202L20.8807 8.44638L20.9263 8.57957C21.4506 10.0805 22.309 11.4427 23.4366 12.5634C24.5909 13.7248 26.0007 14.6 27.5536 15.1193L28.618 14.055Z" fill="black" fill-opacity="0.2"/>
<path d="M17.2808 25.3922L26.1557 16.5173C24.6627 15.8936 23.3067 14.9828 22.1646 13.8366C21.0179 12.6943 20.1066 11.3379 19.4827 9.84433L10.6078 18.7192C9.91545 19.4116 9.56867 19.7584 9.27108 20.14C8.91996 20.5905 8.61862 21.0777 8.37231 21.5931C8.16472 22.0299 8.00992 22.4955 7.70033 23.4242L6.06599 28.3237C5.99077 28.548 5.97961 28.7889 6.03377 29.0192C6.08792 29.2495 6.20524 29.4601 6.37255 29.6275C6.53985 29.7948 6.7505 29.9121 6.98082 29.9662C7.21115 30.0204 7.45201 30.0092 7.67633 29.934L12.5758 28.2997C13.5057 27.9901 13.9701 27.8353 14.4069 27.6277C14.9245 27.3813 15.4089 27.0817 15.86 26.7289C16.2416 26.4313 16.5884 26.0845 17.2808 25.3922ZM28.618 14.055C29.5029 13.1701 30 11.9699 30 10.7185C30 9.46707 29.5029 8.26691 28.618 7.38202C27.7331 6.49713 26.5329 6 25.2815 6C24.0301 6 22.8299 6.49713 21.945 7.38202L20.8807 8.44638L20.9263 8.57957C21.4506 10.0805 22.309 11.4427 23.4366 12.5634C24.5909 13.7248 26.0007 14.6 27.5536 15.1193L28.618 14.055Z" fill="black" fill-opacity="0.2"/>
<path d="M17.2808 25.3922L26.1557 16.5173C24.6627 15.8936 23.3067 14.9828 22.1646 13.8366C21.0179 12.6943 20.1066 11.3379 19.4827 9.84433L10.6078 18.7192C9.91545 19.4116 9.56867 19.7584 9.27108 20.14C8.91996 20.5905 8.61862 21.0777 8.37231 21.5931C8.16472 22.0299 8.00992 22.4955 7.70033 23.4242L6.06599 28.3237C5.99077 28.548 5.97961 28.7889 6.03377 29.0192C6.08792 29.2495 6.20524 29.4601 6.37255 29.6275C6.53985 29.7948 6.7505 29.9121 6.98082 29.9662C7.21115 30.0204 7.45201 30.0092 7.67633 29.934L12.5758 28.2997C13.5057 27.9901 13.9701 27.8353 14.4069 27.6277C14.9245 27.3813 15.4089 27.0817 15.86 26.7289C16.2416 26.4313 16.5884 26.0845 17.2808 25.3922ZM28.618 14.055C29.5029 13.1701 30 11.9699 30 10.7185C30 9.46707 29.5029 8.26691 28.618 7.38202C27.7331 6.49713 26.5329 6 25.2815 6C24.0301 6 22.8299 6.49713 21.945 7.38202L20.8807 8.44638L20.9263 8.57957C21.4506 10.0805 22.309 11.4427 23.4366 12.5634C24.5909 13.7248 26.0007 14.6 27.5536 15.1193L28.618 14.055Z" fill="black" fill-opacity="0.2"/>
</svg>
