<svg width="40" height="40" viewBox="0 0 40 40" fill="none" xmlns="http://www.w3.org/2000/svg">
<path d="M6.46875 15.5312C5.48958 14.5521 5 13.375 5 12C5 10.625 5.48958 9.44792 6.46875 8.46875C7.44792 7.48958 8.625 7 10 7C11.375 7 12.5521 7.48958 13.5312 8.46875C14.5104 9.44792 15 10.625 15 12C15 13.375 14.5104 14.5521 13.5312 15.5312C12.5521 16.5104 11.375 17 10 17C8.625 17 7.44792 16.5104 6.46875 15.5312ZM0 24.5V23.5C0 22.7917 0.1825 22.1408 0.5475 21.5475C0.9125 20.9542 1.39667 20.5008 2 20.1875C3.29167 19.5417 4.60417 19.0575 5.9375 18.735C7.27083 18.4125 8.625 18.2508 10 18.25C11.375 18.2492 12.7292 18.4108 14.0625 18.735C15.3958 19.0592 16.7083 19.5433 18 20.1875C18.6042 20.5 19.0887 20.9533 19.4537 21.5475C19.8187 22.1417 20.0008 22.7925 20 23.5V24.5C20 25.1875 19.7554 25.7762 19.2662 26.2662C18.7771 26.7562 18.1883 27.0008 17.5 27H2.5C1.8125 27 1.22417 26.7554 0.735 26.2662C0.245833 25.7771 0.000833333 25.1883 0 24.5Z" fill="#0B257C"/>
<path d="M26.4687 15.5312C25.4896 14.5521 25 13.375 25 12C25 10.625 25.4896 9.44792 26.4687 8.46875C27.4479 7.48958 28.625 7 30 7C31.375 7 32.5521 7.48958 33.5312 8.46875C34.5104 9.44792 35 10.625 35 12C35 13.375 34.5104 14.5521 33.5312 15.5312C32.5521 16.5104 31.375 17 30 17C28.625 17 27.4479 16.5104 26.4687 15.5312ZM20 24.5V23.5C20 22.7917 20.1825 22.1408 20.5475 21.5475C20.9125 20.9542 21.3967 20.5008 22 20.1875C23.2917 19.5417 24.6042 19.0575 25.9375 18.735C27.2708 18.4125 28.625 18.2508 30 18.25C31.375 18.2492 32.7292 18.4108 34.0625 18.735C35.3958 19.0592 36.7083 19.5433 38 20.1875C38.6042 20.5 39.0887 20.9533 39.4537 21.5475C39.8187 22.1417 40.0008 22.7925 40 23.5V24.5C40 25.1875 39.7554 25.7762 39.2662 26.2662C38.7771 26.7562 38.1883 27.0008 37.5 27H22.5C21.8125 27 21.2242 26.7554 20.735 26.2662C20.2458 25.7771 20.0008 25.1883 20 24.5Z" fill="#0B257C"/>
<path d="M19.5 20.5625C20.9635 20.5616 22.405 20.7341 23.8242 21.0791C25.0659 21.381 26.2903 21.8123 27.4961 22.374L28.0117 22.623L28.0146 22.625C28.6904 22.9745 29.2332 23.4821 29.6396 24.1436C30.0475 24.8075 30.2509 25.5368 30.25 26.3252V27.375C30.25 28.1636 29.9663 28.8453 29.4062 29.4062C28.8461 29.9673 28.1645 30.2509 27.375 30.25H11.625C10.8364 30.25 10.1549 29.9664 9.59473 29.4062C9.03467 28.8461 8.75096 28.1642 8.75 27.375V26.3252C8.75 25.536 8.95439 24.8066 9.3623 24.1436C9.76859 23.4833 10.3099 22.9753 10.9844 22.625L10.9883 22.623C12.3605 21.937 13.7565 21.4224 15.1758 21.0791C16.595 20.7358 18.0366 20.5634 19.5 20.5625ZM19.5 8.75C21.0106 8.75 22.3101 9.2906 23.3848 10.3652C24.4594 11.4399 25 12.7394 25 14.25C25 15.7606 24.4594 17.0601 23.3848 18.1348C22.3101 19.2094 21.0106 19.75 19.5 19.75C17.9894 19.75 16.6899 19.2094 15.6152 18.1348C14.5406 17.0601 14 15.7606 14 14.25C14 12.7394 14.5406 11.4399 15.6152 10.3652C16.6899 9.2906 17.9894 8.75 19.5 8.75Z" fill="#0B257C" stroke="#A7BAFA" stroke-width="0.5"/>
</svg>
