<svg width="40" height="40" viewBox="0 0 40 40" fill="none" xmlns="http://www.w3.org/2000/svg">
<path d="M9.66667 30.6667L5.83334 34.5C5.30556 35.0278 4.70111 35.1461 4.02 34.855C3.33889 34.5639 2.99889 34.0428 3 33.2917V7.33333C3 6.41667 3.32667 5.63222 3.98 4.98C4.63334 4.32778 5.41778 4.00111 6.33334 4H33C33.9167 4 34.7017 4.32667 35.355 4.98C36.0083 5.63333 36.3344 6.41778 36.3333 7.33333V27.3333C36.3333 28.25 36.0072 29.035 35.355 29.6883C34.7028 30.3417 33.9178 30.6678 33 30.6667H9.66667ZM11.3333 24H21.3333C21.8056 24 22.2017 23.84 22.5217 23.52C22.8417 23.2 23.0011 22.8044 23 22.3333C22.9989 21.8622 22.8389 21.4667 22.52 21.1467C22.2011 20.8267 21.8056 20.6667 21.3333 20.6667H11.3333C10.8611 20.6667 10.4656 20.8267 10.1467 21.1467C9.82778 21.4667 9.66778 21.8622 9.66667 22.3333C9.66556 22.8044 9.82556 23.2006 10.1467 23.5217C10.4678 23.8428 10.8633 24.0022 11.3333 24ZM11.3333 19H28C28.4722 19 28.8683 18.84 29.1883 18.52C29.5083 18.2 29.6678 17.8044 29.6667 17.3333C29.6656 16.8622 29.5056 16.4667 29.1867 16.1467C28.8678 15.8267 28.4722 15.6667 28 15.6667H11.3333C10.8611 15.6667 10.4656 15.8267 10.1467 16.1467C9.82778 16.4667 9.66778 16.8622 9.66667 17.3333C9.66556 17.8044 9.82556 18.2006 10.1467 18.5217C10.4678 18.8428 10.8633 19.0022 11.3333 19ZM11.3333 14H28C28.4722 14 28.8683 13.84 29.1883 13.52C29.5083 13.2 29.6678 12.8044 29.6667 12.3333C29.6656 11.8622 29.5056 11.4667 29.1867 11.1467C28.8678 10.8267 28.4722 10.6667 28 10.6667H11.3333C10.8611 10.6667 10.4656 10.8267 10.1467 11.1467C9.82778 11.4667 9.66778 11.8622 9.66667 12.3333C9.66556 12.8044 9.82556 13.2006 10.1467 13.5217C10.4678 13.8428 10.8633 14.0022 11.3333 14Z" fill="#0B257C"/>
</svg>
