<svg width="16" height="16" viewBox="0 0 16 16" fill="none" xmlns="http://www.w3.org/2000/svg">
<mask id="path-1-outside-1_1382_11217" maskUnits="userSpaceOnUse" x="1" y="1.66675" width="14" height="12" fill="black">
<rect fill="white" x="1" y="1.66675" width="14" height="12"/>
<path d="M3.07733 13.3334C2.77022 13.3334 2.514 13.2307 2.30867 13.0254C2.10333 12.8201 2.00044 12.5636 2 12.2561V3.74408C2 3.43697 2.10289 3.18075 2.30867 2.97541C2.51444 2.77008 2.77044 2.66719 3.07667 2.66675H12.9233C13.23 2.66675 13.486 2.76964 13.6913 2.97541C13.8967 3.18119 13.9996 3.43741 14 3.74408V12.2567C14 12.5634 13.8971 12.8196 13.6913 13.0254C13.4856 13.2312 13.2296 13.3339 12.9233 13.3334H3.07733ZM3.07733 12.6667H12.9233C13.0256 12.6667 13.1196 12.6241 13.2053 12.5387C13.2911 12.4534 13.3338 12.3592 13.3333 12.2561V3.74408C13.3333 3.64141 13.2907 3.54719 13.2053 3.46141C13.12 3.37564 13.026 3.33297 12.9233 3.33341H3.07667C2.97444 3.33341 2.88044 3.37608 2.79467 3.46141C2.70889 3.54675 2.66622 3.64097 2.66667 3.74408V12.2567C2.66667 12.359 2.70933 12.453 2.79467 12.5387C2.88 12.6245 2.974 12.6672 3.07667 12.6667M6 11.0001C6.09511 11.0001 6.17444 10.9683 6.238 10.9047C6.30156 10.8412 6.33333 10.7619 6.33333 10.6667C6.33333 10.5716 6.30156 10.4923 6.238 10.4287C6.17444 10.3652 6.09511 10.3334 6 10.3334H4C3.90533 10.3334 3.826 10.3652 3.762 10.4287C3.698 10.4923 3.66622 10.5716 3.66667 10.6667C3.66711 10.7619 3.69889 10.8412 3.762 10.9047C3.82511 10.9683 3.90444 11.0001 4 11.0001H6ZM9.7 8.59141L8.986 7.87675C8.92111 7.81186 8.84244 7.77808 8.75 7.77541C8.65756 7.77275 8.57889 7.80786 8.514 7.88075C8.45178 7.94564 8.42222 8.0243 8.42533 8.11675C8.42844 8.20919 8.46244 8.28786 8.52733 8.35275L9.32333 9.14875C9.43089 9.2563 9.55644 9.31008 9.7 9.31008C9.84356 9.31008 9.96933 9.2563 10.0773 9.14875L12.29 6.93541C12.3549 6.87097 12.3896 6.79453 12.394 6.70608C12.398 6.61808 12.3633 6.53741 12.29 6.46408C12.2162 6.39075 12.1369 6.35408 12.052 6.35408C11.9671 6.35408 11.8878 6.39075 11.814 6.46408L9.7 8.59141ZM6 8.33342C6.09511 8.33342 6.17444 8.30164 6.238 8.23808C6.30156 8.17453 6.33333 8.09519 6.33333 8.00008C6.33333 7.90497 6.30156 7.82564 6.238 7.76208C6.17444 7.69853 6.09511 7.66675 6 7.66675H4C3.90533 7.66675 3.826 7.69853 3.762 7.76208C3.698 7.82564 3.66622 7.90497 3.66667 8.00008C3.66711 8.09519 3.69889 8.17453 3.762 8.23808C3.82511 8.30164 3.90444 8.33342 4 8.33342H6ZM6 5.66675C6.09511 5.66675 6.17444 5.63497 6.238 5.57141C6.30156 5.50786 6.33333 5.42853 6.33333 5.33341C6.33333 5.2383 6.30156 5.15897 6.238 5.09541C6.17444 5.03186 6.09511 5.00008 6 5.00008H4C3.90533 5.00008 3.826 5.03186 3.762 5.09541C3.698 5.15897 3.66622 5.2383 3.66667 5.33341C3.66711 5.42853 3.69889 5.50786 3.762 5.57141C3.82511 5.63497 3.90444 5.66675 4 5.66675H6Z"/>
</mask>
<path d="M3.07733 13.3334C2.77022 13.3334 2.514 13.2307 2.30867 13.0254C2.10333 12.8201 2.00044 12.5636 2 12.2561V3.74408C2 3.43697 2.10289 3.18075 2.30867 2.97541C2.51444 2.77008 2.77044 2.66719 3.07667 2.66675H12.9233C13.23 2.66675 13.486 2.76964 13.6913 2.97541C13.8967 3.18119 13.9996 3.43741 14 3.74408V12.2567C14 12.5634 13.8971 12.8196 13.6913 13.0254C13.4856 13.2312 13.2296 13.3339 12.9233 13.3334H3.07733ZM3.07733 12.6667H12.9233C13.0256 12.6667 13.1196 12.6241 13.2053 12.5387C13.2911 12.4534 13.3338 12.3592 13.3333 12.2561V3.74408C13.3333 3.64141 13.2907 3.54719 13.2053 3.46141C13.12 3.37564 13.026 3.33297 12.9233 3.33341H3.07667C2.97444 3.33341 2.88044 3.37608 2.79467 3.46141C2.70889 3.54675 2.66622 3.64097 2.66667 3.74408V12.2567C2.66667 12.359 2.70933 12.453 2.79467 12.5387C2.88 12.6245 2.974 12.6672 3.07667 12.6667M6 11.0001C6.09511 11.0001 6.17444 10.9683 6.238 10.9047C6.30156 10.8412 6.33333 10.7619 6.33333 10.6667C6.33333 10.5716 6.30156 10.4923 6.238 10.4287C6.17444 10.3652 6.09511 10.3334 6 10.3334H4C3.90533 10.3334 3.826 10.3652 3.762 10.4287C3.698 10.4923 3.66622 10.5716 3.66667 10.6667C3.66711 10.7619 3.69889 10.8412 3.762 10.9047C3.82511 10.9683 3.90444 11.0001 4 11.0001H6ZM9.7 8.59141L8.986 7.87675C8.92111 7.81186 8.84244 7.77808 8.75 7.77541C8.65756 7.77275 8.57889 7.80786 8.514 7.88075C8.45178 7.94564 8.42222 8.0243 8.42533 8.11675C8.42844 8.20919 8.46244 8.28786 8.52733 8.35275L9.32333 9.14875C9.43089 9.2563 9.55644 9.31008 9.7 9.31008C9.84356 9.31008 9.96933 9.2563 10.0773 9.14875L12.29 6.93541C12.3549 6.87097 12.3896 6.79453 12.394 6.70608C12.398 6.61808 12.3633 6.53741 12.29 6.46408C12.2162 6.39075 12.1369 6.35408 12.052 6.35408C11.9671 6.35408 11.8878 6.39075 11.814 6.46408L9.7 8.59141ZM6 8.33342C6.09511 8.33342 6.17444 8.30164 6.238 8.23808C6.30156 8.17453 6.33333 8.09519 6.33333 8.00008C6.33333 7.90497 6.30156 7.82564 6.238 7.76208C6.17444 7.69853 6.09511 7.66675 6 7.66675H4C3.90533 7.66675 3.826 7.69853 3.762 7.76208C3.698 7.82564 3.66622 7.90497 3.66667 8.00008C3.66711 8.09519 3.69889 8.17453 3.762 8.23808C3.82511 8.30164 3.90444 8.33342 4 8.33342H6ZM6 5.66675C6.09511 5.66675 6.17444 5.63497 6.238 5.57141C6.30156 5.50786 6.33333 5.42853 6.33333 5.33341C6.33333 5.2383 6.30156 5.15897 6.238 5.09541C6.17444 5.03186 6.09511 5.00008 6 5.00008H4C3.90533 5.00008 3.826 5.03186 3.762 5.09541C3.698 5.15897 3.66622 5.2383 3.66667 5.33341C3.66711 5.42853 3.69889 5.50786 3.762 5.57141C3.82511 5.63497 3.90444 5.66675 4 5.66675H6Z" fill="#5E5E5E"/>
<path d="M2.66667 12.6667H2.81667V3.33341H2.66667H2.51667V12.6667H2.66667ZM2 12.2561H1.7L1.7 12.2565L2 12.2561ZM3.07667 2.66675V2.36675L3.07623 2.36675L3.07667 2.66675ZM14 3.74408H14.3L14.3 3.74365L14 3.74408ZM12.9233 13.3334L12.9238 13.0334H12.9233V13.3334ZM13.3333 12.2561H13.0333L13.0333 12.2574L13.3333 12.2561ZM12.9233 3.33341V3.63342L12.9246 3.63341L12.9233 3.33341ZM2.66667 3.74408H2.96667L2.96666 3.74279L2.66667 3.74408ZM9.7 8.59141L9.48777 8.80345L9.70057 9.01645L9.9128 8.80288L9.7 8.59141ZM8.986 7.87675L9.19823 7.66471L9.19813 7.66462L8.986 7.87675ZM8.514 7.88075L8.73068 8.08853L8.73807 8.08023L8.514 7.88075ZM10.0773 9.14875L10.289 9.36132L10.2895 9.36085L10.0773 9.14875ZM12.29 6.93541L12.0786 6.72255L12.0778 6.72331L12.29 6.93541ZM12.394 6.70608L12.6936 6.72114L12.6937 6.7197L12.394 6.70608ZM12.29 6.46408L12.5021 6.25195L12.5015 6.25131L12.29 6.46408ZM11.814 6.46408L11.6025 6.25131L11.6012 6.25262L11.814 6.46408ZM6 5.00008V5.30008V5.00008ZM4 5.66675V5.96675V5.66675ZM3.07733 13.3334V13.0334C2.8447 13.0334 2.66637 12.9589 2.5208 12.8133L2.30867 13.0254L2.09653 13.2375C2.36163 13.5026 2.69575 13.6334 3.07733 13.6334V13.3334ZM2.30867 13.0254L2.5208 12.8133C2.3752 12.6677 2.30034 12.489 2.3 12.2556L2 12.2561L1.7 12.2565C1.70055 12.6383 1.83147 12.9725 2.09653 13.2375L2.30867 13.0254ZM2 12.2561H2.3V3.74408H2H1.7V12.2561H2ZM2 3.74408H2.3C2.3 3.51165 2.37464 3.33339 2.52057 3.18778L2.30867 2.97541L2.09676 2.76305C1.83114 3.0281 1.7 3.36229 1.7 3.74408H2ZM2.30867 2.97541L2.52057 3.18778C2.66697 3.04169 2.84548 2.96708 3.0771 2.96675L3.07667 2.66675L3.07623 2.36675C2.69541 2.3673 2.36192 2.49847 2.09676 2.76305L2.30867 2.97541ZM3.07667 2.66675V2.96675H12.9233V2.66675V2.36675H3.07667V2.66675ZM12.9233 2.66675V2.96675C13.1552 2.96675 13.3333 3.04129 13.479 3.18732L13.6913 2.97541L13.9037 2.76351C13.6387 2.49798 13.3048 2.36675 12.9233 2.36675V2.66675ZM13.6913 2.97541L13.479 3.18732C13.625 3.33363 13.6997 3.51231 13.7 3.74452L14 3.74408L14.3 3.74365C14.2994 3.36252 14.1684 3.02876 13.9037 2.76351L13.6913 2.97541ZM14 3.74408H13.7V12.2567H14H14.3V3.74408H14ZM14 12.2567H13.7C13.7 12.4886 13.6254 12.667 13.4792 12.8133L13.6913 13.0254L13.9035 13.2375C14.1688 12.9722 14.3 12.6382 14.3 12.2567H14ZM13.6913 13.0254L13.4792 12.8133C13.333 12.9595 13.1549 13.0338 12.9238 13.0334L12.9233 13.3334L12.9229 13.6334C13.3042 13.634 13.6381 13.5029 13.9035 13.2375L13.6913 13.0254ZM12.9233 13.3334V13.0334H3.07733V13.3334V13.6334H12.9233V13.3334ZM3.07733 12.6667V12.9667H12.9233V12.6667V12.3667H3.07733V12.6667ZM12.9233 12.6667V12.9667C13.1192 12.9667 13.286 12.8817 13.4169 12.7514L13.2053 12.5387L12.9938 12.3261C12.9531 12.3665 12.9319 12.3667 12.9233 12.3667V12.6667ZM13.2053 12.5387L13.4169 12.7514C13.5489 12.6201 13.6342 12.4521 13.6333 12.2548L13.3333 12.2561L13.0333 12.2574C13.0334 12.2663 13.0333 12.2867 12.9938 12.3261L13.2053 12.5387ZM13.3333 12.2561H13.6333V3.74408H13.3333H13.0333V12.2561H13.3333ZM13.3333 3.74408H13.6333C13.6333 3.54809 13.5485 3.38104 13.418 3.24983L13.2053 3.46141L12.9927 3.67299C13.0328 3.71335 13.0333 3.73474 13.0333 3.74408H13.3333ZM13.2053 3.46141L13.418 3.24983C13.287 3.1181 13.1192 3.03256 12.922 3.03342L12.9233 3.33341L12.9246 3.63341C12.9328 3.63338 12.953 3.63317 12.9927 3.67299L13.2053 3.46141ZM12.9233 3.33341V3.03341H3.07667V3.33341V3.63341H12.9233V3.33341ZM3.07667 3.33341V3.03341C2.88077 3.03341 2.71399 3.11851 2.58309 3.24873L2.79467 3.46141L3.00625 3.6741C3.0469 3.63366 3.06812 3.63341 3.07667 3.63341V3.33341ZM2.79467 3.46141L2.58309 3.24873C2.45105 3.38008 2.36582 3.5481 2.36667 3.74537L2.66667 3.74408L2.96666 3.74279C2.96663 3.73385 2.96672 3.71342 3.00625 3.6741L2.79467 3.46141ZM2.66667 3.74408H2.36667V12.2567H2.66667H2.96667V3.74408H2.66667ZM2.66667 12.2567H2.36667C2.36667 12.4526 2.45176 12.6194 2.58198 12.7503L2.79467 12.5387L3.00735 12.3272C2.96691 12.2865 2.96667 12.2653 2.96667 12.2567H2.66667ZM2.79467 12.5387L2.58198 12.7503C2.71304 12.8821 2.88077 12.9676 3.07797 12.9667L3.07667 12.6667L3.07537 12.3668C3.06723 12.3668 3.04696 12.367 3.00735 12.3272L2.79467 12.5387ZM6 11.0001V11.3001C6.16953 11.3001 6.32678 11.2402 6.45013 11.1169L6.238 10.9047L6.02587 10.6926C6.02328 10.6952 6.02159 10.6964 6.02088 10.6969C6.02019 10.6974 6.01975 10.6976 6.01928 10.6978C6.01888 10.6979 6.01365 10.7001 6 10.7001V11.0001ZM6.238 10.9047L6.45013 11.1169C6.57348 10.9935 6.63333 10.8363 6.63333 10.6667H6.33333H6.03333C6.03333 10.6804 6.03117 10.6856 6.03101 10.686C6.03082 10.6865 6.03061 10.6869 6.03015 10.6876C6.02968 10.6883 6.02846 10.69 6.02587 10.6926L6.238 10.9047ZM6.33333 10.6667H6.63333C6.63333 10.4972 6.57348 10.34 6.45013 10.2166L6.238 10.4287L6.02587 10.6409C6.02846 10.6435 6.02968 10.6452 6.03015 10.6459C6.03061 10.6466 6.03082 10.647 6.03101 10.6475C6.03117 10.6479 6.03333 10.6531 6.03333 10.6667H6.33333ZM6.238 10.4287L6.45013 10.2166C6.32678 10.0933 6.16953 10.0334 6 10.0334V10.3334V10.6334C6.01365 10.6334 6.01888 10.6356 6.01928 10.6357C6.01975 10.6359 6.02019 10.6361 6.02088 10.6366C6.02159 10.6371 6.02328 10.6383 6.02587 10.6409L6.238 10.4287ZM6 10.3334V10.0334H4V10.3334V10.6334H6V10.3334ZM4 10.3334V10.0334C3.8305 10.0334 3.67383 10.0935 3.55061 10.2159L3.762 10.4287L3.97339 10.6416C3.97621 10.6388 3.97811 10.6374 3.97902 10.6368C3.97989 10.6363 3.98049 10.636 3.98105 10.6357C3.98161 10.6355 3.98676 10.6334 4 10.6334V10.3334ZM3.762 10.4287L3.55061 10.2159C3.42617 10.3394 3.36587 10.4975 3.36667 10.6681L3.66667 10.6667L3.96666 10.6653C3.96663 10.6585 3.96719 10.654 3.96765 10.6514C3.9681 10.6489 3.96855 10.6477 3.96866 10.6475C3.96875 10.6472 3.96887 10.647 3.96924 10.6464C3.96963 10.6458 3.9708 10.6442 3.97339 10.6416L3.762 10.4287ZM3.66667 10.6667L3.36667 10.6681C3.36746 10.8366 3.42686 10.993 3.54913 11.1161L3.762 10.9047L3.97488 10.6934C3.97229 10.6908 3.97101 10.689 3.97046 10.6882C3.96992 10.6874 3.9696 10.6867 3.96932 10.686C3.96897 10.6851 3.96673 10.6794 3.96666 10.6653L3.66667 10.6667ZM3.762 10.9047L3.54913 11.1161C3.6726 11.2405 3.83044 11.3001 4 11.3001V11.0001V10.7001C3.98593 10.7001 3.98062 10.6979 3.98038 10.6978C3.98001 10.6976 3.97972 10.6975 3.97923 10.6971C3.97872 10.6968 3.97724 10.6957 3.97488 10.6934L3.762 10.9047ZM4 11.0001V11.3001H6V11.0001V10.7001H4V11.0001ZM9.7 8.59141L9.91223 8.37938L9.19823 7.66471L8.986 7.87675L8.77377 8.08878L9.48777 8.80345L9.7 8.59141ZM8.986 7.87675L9.19813 7.66462C9.07863 7.54511 8.92697 7.48039 8.75865 7.47554L8.75 7.77541L8.74135 8.07529C8.75285 8.07562 8.75806 8.07759 8.75997 8.07841C8.76184 8.07922 8.76641 8.08142 8.77387 8.08888L8.986 7.87675ZM8.75 7.77541L8.75865 7.47554C8.57216 7.47016 8.41003 7.54636 8.28993 7.68127L8.514 7.88075L8.73807 8.08023C8.74222 8.07557 8.74483 8.07348 8.74561 8.0729C8.7463 8.07237 8.74572 8.07291 8.74394 8.0737C8.74213 8.07451 8.74036 8.07502 8.73914 8.07525C8.73799 8.07546 8.73854 8.07521 8.74135 8.07529L8.75 7.77541ZM8.514 7.88075L8.29747 7.67311C8.17747 7.79825 8.11976 7.95618 8.1255 8.12684L8.42533 8.11675L8.72516 8.10666C8.72497 8.10098 8.72534 8.0975 8.72561 8.09582C8.72586 8.0942 8.72608 8.09371 8.726 8.09393C8.72591 8.09415 8.72588 8.09412 8.72622 8.09359C8.72658 8.09302 8.72778 8.09125 8.73054 8.08838L8.514 7.88075ZM8.42533 8.11675L8.1255 8.12684C8.13115 8.29464 8.19605 8.44573 8.3152 8.56488L8.52733 8.35275L8.73947 8.14062C8.72884 8.12999 8.72574 8.12374 8.72516 8.10666L8.42533 8.11675ZM8.52733 8.35275L8.3152 8.56488L9.1112 9.36088L9.32333 9.14875L9.53547 8.93662L8.73947 8.14062L8.52733 8.35275ZM9.32333 9.14875L9.1112 9.36088C9.2713 9.52098 9.47177 9.61008 9.7 9.61008V9.31008V9.01008C9.64112 9.01008 9.59048 8.99163 9.53547 8.93662L9.32333 9.14875ZM9.7 9.31008V9.61008C9.92818 9.61008 10.1287 9.52103 10.289 9.36132L10.0773 9.14875L9.86564 8.93618C9.81001 8.99158 9.75893 9.01008 9.7 9.01008V9.31008ZM10.0773 9.14875L10.2895 9.36085L12.5022 7.14751L12.29 6.93541L12.0778 6.72331L9.86517 8.93665L10.0773 9.14875ZM12.29 6.93541L12.5014 7.14827C12.6174 7.03308 12.6853 6.88685 12.6936 6.72114L12.394 6.70608L12.0944 6.69103C12.0938 6.7022 12.0924 6.70886 12.0786 6.72256L12.29 6.93541ZM12.394 6.70608L12.6937 6.7197C12.7022 6.53245 12.6235 6.37334 12.5021 6.25195L12.29 6.46408L12.0779 6.67621C12.0851 6.68349 12.0896 6.68906 12.0921 6.69271C12.0934 6.69452 12.0942 6.69587 12.0947 6.69673C12.0952 6.69758 12.0954 6.69802 12.0954 6.69803C12.0954 6.69804 12.0953 6.69775 12.0951 6.69718C12.0949 6.6966 12.0947 6.6959 12.0946 6.69512C12.0943 6.69341 12.0943 6.69236 12.0943 6.69246L12.394 6.70608ZM12.29 6.46408L12.5015 6.25131C12.385 6.13548 12.2333 6.05408 12.052 6.05408V6.35408V6.65408C12.0514 6.65408 12.0504 6.654 12.0493 6.65375C12.0482 6.6535 12.0481 6.65334 12.0493 6.6539C12.0518 6.65504 12.0619 6.6603 12.0785 6.67685L12.29 6.46408ZM12.052 6.35408V6.05408C11.8707 6.05408 11.719 6.13548 11.6025 6.25131L11.814 6.46408L12.0255 6.67685C12.0421 6.6603 12.0522 6.65504 12.0547 6.6539C12.0559 6.65334 12.0558 6.6535 12.0547 6.65375C12.0536 6.654 12.0526 6.65408 12.052 6.65408V6.35408ZM11.814 6.46408L11.6012 6.25262L9.4872 8.37995L9.7 8.59141L9.9128 8.80288L12.0268 6.67555L11.814 6.46408ZM6 8.33342V8.63341C6.16953 8.63341 6.32678 8.57357 6.45013 8.45021L6.238 8.23808L6.02587 8.02595C6.02328 8.02854 6.02159 8.02976 6.02088 8.03023C6.02019 8.03069 6.01975 8.0309 6.01928 8.03109C6.01888 8.03125 6.01365 8.03341 6 8.03341V8.33342ZM6.238 8.23808L6.45013 8.45021C6.57348 8.32686 6.63333 8.16962 6.63333 8.00008H6.33333H6.03333C6.03333 8.01373 6.03117 8.01896 6.03101 8.01936C6.03082 8.01983 6.03061 8.02028 6.03015 8.02096C6.02968 8.02167 6.02846 8.02336 6.02587 8.02595L6.238 8.23808ZM6.33333 8.00008H6.63333C6.63333 7.83055 6.57348 7.6733 6.45013 7.54995L6.238 7.76208L6.02587 7.97421C6.02846 7.9768 6.02968 7.97849 6.03015 7.97921C6.03061 7.97989 6.03082 7.98033 6.03101 7.9808C6.03117 7.9812 6.03333 7.98643 6.03333 8.00008H6.33333ZM6.238 7.76208L6.45013 7.54995C6.32678 7.4266 6.16953 7.36675 6 7.36675V7.66675V7.96675C6.01365 7.96675 6.01888 7.96891 6.01928 7.96907C6.01975 7.96926 6.02019 7.96947 6.02088 7.96993C6.02159 7.97041 6.02328 7.97162 6.02587 7.97421L6.238 7.76208ZM6 7.66675V7.36675H4V7.66675V7.96675H6V7.66675ZM4 7.66675V7.36675C3.8305 7.36675 3.67383 7.42684 3.55061 7.54921L3.762 7.76208L3.97339 7.97495C3.97621 7.97216 3.97811 7.97077 3.97902 7.97017C3.97989 7.96958 3.98049 7.9693 3.98105 7.96907C3.98161 7.96885 3.98676 7.96675 4 7.96675V7.66675ZM3.762 7.76208L3.55061 7.54921C3.42617 7.67278 3.36587 7.83084 3.36667 8.00148L3.66667 8.00008L3.96666 7.99868C3.96663 7.99183 3.96719 7.98733 3.96765 7.98474C3.9681 7.98222 3.96855 7.98106 3.96866 7.9808C3.96875 7.98056 3.96887 7.9803 3.96924 7.97974C3.96963 7.97915 3.9708 7.97753 3.97339 7.97495L3.762 7.76208ZM3.66667 8.00008L3.36667 8.00148C3.36746 8.16992 3.42686 8.32634 3.54913 8.44947L3.762 8.23808L3.97488 8.0267C3.97229 8.02409 3.97101 8.02234 3.97046 8.0215C3.96992 8.02068 3.9696 8.02006 3.96932 8.01936C3.96897 8.01848 3.96673 8.01275 3.96666 7.99868L3.66667 8.00008ZM3.762 8.23808L3.54913 8.44947C3.6726 8.57381 3.83044 8.63341 4 8.63341V8.33342V8.03341C3.98593 8.03341 3.98062 8.03119 3.98038 8.03109C3.98001 8.03094 3.97972 8.0308 3.97923 8.03047C3.97872 8.03013 3.97724 8.02908 3.97488 8.0267L3.762 8.23808ZM4 8.33342V8.63341H6V8.33342V8.03341H4V8.33342ZM6 5.66675V5.96675C6.16953 5.96675 6.32678 5.9069 6.45013 5.78355L6.238 5.57141L6.02587 5.35928C6.02328 5.36187 6.02159 5.36309 6.02088 5.36357C6.02019 5.36402 6.01975 5.36424 6.01928 5.36443C6.01888 5.36459 6.01365 5.36675 6 5.36675V5.66675ZM6.238 5.57141L6.45013 5.78355C6.57348 5.6602 6.63333 5.50295 6.63333 5.33341H6.33333H6.03333C6.03333 5.34707 6.03117 5.3523 6.03101 5.3527C6.03082 5.35317 6.03061 5.35361 6.03015 5.35429C6.02968 5.35501 6.02846 5.35669 6.02587 5.35928L6.238 5.57141ZM6.33333 5.33341H6.63333C6.63333 5.16388 6.57348 5.00663 6.45013 4.88328L6.238 5.09541L6.02587 5.30755C6.02846 5.31014 6.02968 5.31182 6.03015 5.31254C6.03061 5.31322 6.03082 5.31366 6.03101 5.31413C6.03117 5.31453 6.03333 5.31976 6.03333 5.33341H6.33333ZM6.238 5.09541L6.45013 4.88328C6.32678 4.75993 6.16953 4.70008 6 4.70008V5.00008V5.30008C6.01365 5.30008 6.01888 5.30224 6.01928 5.3024C6.01975 5.30259 6.02019 5.30281 6.02088 5.30326C6.02159 5.30374 6.02328 5.30496 6.02587 5.30755L6.238 5.09541ZM6 5.00008V4.70008H4V5.00008V5.30008H6V5.00008ZM4 5.00008V4.70008C3.83049 4.70008 3.67383 4.76018 3.55061 4.88254L3.762 5.09541L3.97339 5.30828C3.97621 5.30549 3.97811 5.30411 3.97902 5.3035C3.97989 5.30292 3.98049 5.30263 3.98105 5.3024C3.98161 5.30218 3.98676 5.30008 4 5.30008V5.00008ZM3.762 5.09541L3.55061 4.88254C3.42617 5.00611 3.36587 5.16418 3.36667 5.33482L3.66667 5.33341L3.96666 5.33201C3.96663 5.32517 3.96719 5.32066 3.96765 5.31808C3.9681 5.31556 3.96855 5.3144 3.96866 5.31413C3.96875 5.31389 3.96887 5.31363 3.96924 5.31308C3.96963 5.31249 3.9708 5.31086 3.97339 5.30828L3.762 5.09541ZM3.66667 5.33341L3.36667 5.33482C3.36746 5.50325 3.42686 5.65968 3.54913 5.7828L3.762 5.57141L3.97488 5.36003C3.97229 5.35742 3.97101 5.35567 3.97046 5.35483C3.96992 5.35402 3.9696 5.3534 3.96932 5.3527C3.96897 5.35181 3.96673 5.34608 3.96666 5.33201L3.66667 5.33341ZM3.762 5.57141L3.54913 5.7828C3.6726 5.90715 3.83044 5.96675 4 5.96675V5.66675V5.36675C3.98593 5.36675 3.98062 5.36452 3.98038 5.36443C3.98001 5.36427 3.97972 5.36413 3.97923 5.36381C3.97872 5.36346 3.97724 5.36241 3.97488 5.36003L3.762 5.57141ZM4 5.66675V5.96675H6V5.66675V5.36675H4V5.66675Z" fill="#5E5E5E" mask="url(#path-1-outside-1_1382_11217)"/>
</svg>
