<svg width="28" height="28" viewBox="0 0 28 28" fill="none" xmlns="http://www.w3.org/2000/svg">
<path d="M16.4503 4.66685C16.4503 4.6359 16.438 4.60601 16.4161 4.58413C16.3943 4.56238 16.3649 4.55001 16.3341 4.54995H11.6672C11.6362 4.54995 11.6064 4.56225 11.5845 4.58413C11.5627 4.606 11.5503 4.63596 11.5503 4.66685V7.11685H16.4503V4.66685ZM8.04688 22.0793C8.04929 22.1083 8.05029 22.1377 8.05029 22.1668C8.05035 22.5071 8.18572 22.8334 8.42627 23.074C8.66694 23.3146 8.99372 23.45 9.33408 23.45H18.6672C19.0075 23.45 19.3337 23.3146 19.5743 23.074C19.8149 22.8334 19.9502 22.5071 19.9503 22.1668C19.9503 22.1377 19.952 22.1083 19.9544 22.0793L21.0256 9.21685H6.975L8.04688 22.0793ZM10.6172 19.8331V12.8331C10.6173 12.2533 11.0874 11.7831 11.6672 11.7831C12.247 11.7831 12.7171 12.2533 12.7172 12.8331V19.8331C12.7172 20.413 12.2471 20.8831 11.6672 20.8831C11.0873 20.8831 10.6172 20.413 10.6172 19.8331ZM15.2841 19.8331V12.8331C15.2842 12.2533 15.7543 11.7831 16.3341 11.7831C16.9138 11.7832 17.384 12.2533 17.3841 12.8331V19.8331C17.3841 20.4129 16.9139 20.8829 16.3341 20.8831C15.7542 20.8831 15.2841 20.413 15.2841 19.8331ZM18.5503 7.11685H23.3341C23.9139 7.11697 24.3841 7.58702 24.3841 8.16685C24.384 8.74656 23.9138 9.21672 23.3341 9.21685H23.1338L22.0482 22.2311C22.0316 23.105 21.6789 23.9395 21.0598 24.5587C20.4253 25.1932 19.5645 25.5499 18.6672 25.55H9.33408C8.43677 25.55 7.576 25.1932 6.9415 24.5587C6.31955 23.9367 5.96468 23.0976 5.95098 22.2195L4.86748 9.21685H4.66719C4.08736 9.21685 3.61731 8.74664 3.61719 8.16685C3.61719 7.58695 4.08729 7.11685 4.66719 7.11685H9.45029V4.66685C9.45029 4.079 9.68407 3.51506 10.0997 3.09937C10.5154 2.68366 11.0793 2.44995 11.6672 2.44995H16.3341C16.9219 2.45001 17.4859 2.68371 17.9016 3.09937C18.3171 3.51505 18.5503 4.07906 18.5503 4.66685V7.11685Z" fill="#121212"/>
<path d="M16.4503 4.66685C16.4503 4.6359 16.438 4.60601 16.4161 4.58413C16.3943 4.56238 16.3649 4.55001 16.3341 4.54995H11.6672C11.6362 4.54995 11.6064 4.56225 11.5845 4.58413C11.5627 4.606 11.5503 4.63596 11.5503 4.66685V7.11685H16.4503V4.66685ZM8.04688 22.0793C8.04929 22.1083 8.05029 22.1377 8.05029 22.1668C8.05035 22.5071 8.18572 22.8334 8.42627 23.074C8.66694 23.3146 8.99372 23.45 9.33408 23.45H18.6672C19.0075 23.45 19.3337 23.3146 19.5743 23.074C19.8149 22.8334 19.9502 22.5071 19.9503 22.1668C19.9503 22.1377 19.952 22.1083 19.9544 22.0793L21.0256 9.21685H6.975L8.04688 22.0793ZM10.6172 19.8331V12.8331C10.6173 12.2533 11.0874 11.7831 11.6672 11.7831C12.247 11.7831 12.7171 12.2533 12.7172 12.8331V19.8331C12.7172 20.413 12.2471 20.8831 11.6672 20.8831C11.0873 20.8831 10.6172 20.413 10.6172 19.8331ZM15.2841 19.8331V12.8331C15.2842 12.2533 15.7543 11.7831 16.3341 11.7831C16.9138 11.7832 17.384 12.2533 17.3841 12.8331V19.8331C17.3841 20.4129 16.9139 20.8829 16.3341 20.8831C15.7542 20.8831 15.2841 20.413 15.2841 19.8331ZM18.5503 7.11685H23.3341C23.9139 7.11697 24.3841 7.58702 24.3841 8.16685C24.384 8.74656 23.9138 9.21672 23.3341 9.21685H23.1338L22.0482 22.2311C22.0316 23.105 21.6789 23.9395 21.0598 24.5587C20.4253 25.1932 19.5645 25.5499 18.6672 25.55H9.33408C8.43677 25.55 7.576 25.1932 6.9415 24.5587C6.31955 23.9367 5.96468 23.0976 5.95098 22.2195L4.86748 9.21685H4.66719C4.08736 9.21685 3.61731 8.74664 3.61719 8.16685C3.61719 7.58695 4.08729 7.11685 4.66719 7.11685H9.45029V4.66685C9.45029 4.079 9.68407 3.51506 10.0997 3.09937C10.5154 2.68366 11.0793 2.44995 11.6672 2.44995H16.3341C16.9219 2.45001 17.4859 2.68371 17.9016 3.09937C18.3171 3.51505 18.5503 4.07906 18.5503 4.66685V7.11685Z" fill="black" fill-opacity="0.2"/>
<path d="M16.4503 4.66685C16.4503 4.6359 16.438 4.60601 16.4161 4.58413C16.3943 4.56238 16.3649 4.55001 16.3341 4.54995H11.6672C11.6362 4.54995 11.6064 4.56225 11.5845 4.58413C11.5627 4.606 11.5503 4.63596 11.5503 4.66685V7.11685H16.4503V4.66685ZM8.04688 22.0793C8.04929 22.1083 8.05029 22.1377 8.05029 22.1668C8.05035 22.5071 8.18572 22.8334 8.42627 23.074C8.66694 23.3146 8.99372 23.45 9.33408 23.45H18.6672C19.0075 23.45 19.3337 23.3146 19.5743 23.074C19.8149 22.8334 19.9502 22.5071 19.9503 22.1668C19.9503 22.1377 19.952 22.1083 19.9544 22.0793L21.0256 9.21685H6.975L8.04688 22.0793ZM10.6172 19.8331V12.8331C10.6173 12.2533 11.0874 11.7831 11.6672 11.7831C12.247 11.7831 12.7171 12.2533 12.7172 12.8331V19.8331C12.7172 20.413 12.2471 20.8831 11.6672 20.8831C11.0873 20.8831 10.6172 20.413 10.6172 19.8331ZM15.2841 19.8331V12.8331C15.2842 12.2533 15.7543 11.7831 16.3341 11.7831C16.9138 11.7832 17.384 12.2533 17.3841 12.8331V19.8331C17.3841 20.4129 16.9139 20.8829 16.3341 20.8831C15.7542 20.8831 15.2841 20.413 15.2841 19.8331ZM18.5503 7.11685H23.3341C23.9139 7.11697 24.3841 7.58702 24.3841 8.16685C24.384 8.74656 23.9138 9.21672 23.3341 9.21685H23.1338L22.0482 22.2311C22.0316 23.105 21.6789 23.9395 21.0598 24.5587C20.4253 25.1932 19.5645 25.5499 18.6672 25.55H9.33408C8.43677 25.55 7.576 25.1932 6.9415 24.5587C6.31955 23.9367 5.96468 23.0976 5.95098 22.2195L4.86748 9.21685H4.66719C4.08736 9.21685 3.61731 8.74664 3.61719 8.16685C3.61719 7.58695 4.08729 7.11685 4.66719 7.11685H9.45029V4.66685C9.45029 4.079 9.68407 3.51506 10.0997 3.09937C10.5154 2.68366 11.0793 2.44995 11.6672 2.44995H16.3341C16.9219 2.45001 17.4859 2.68371 17.9016 3.09937C18.3171 3.51505 18.5503 4.07906 18.5503 4.66685V7.11685Z" fill="black" fill-opacity="0.2"/>
<path d="M16.4503 4.66685C16.4503 4.6359 16.438 4.60601 16.4161 4.58413C16.3943 4.56238 16.3649 4.55001 16.3341 4.54995H11.6672C11.6362 4.54995 11.6064 4.56225 11.5845 4.58413C11.5627 4.606 11.5503 4.63596 11.5503 4.66685V7.11685H16.4503V4.66685ZM8.04688 22.0793C8.04929 22.1083 8.05029 22.1377 8.05029 22.1668C8.05035 22.5071 8.18572 22.8334 8.42627 23.074C8.66694 23.3146 8.99372 23.45 9.33408 23.45H18.6672C19.0075 23.45 19.3337 23.3146 19.5743 23.074C19.8149 22.8334 19.9502 22.5071 19.9503 22.1668C19.9503 22.1377 19.952 22.1083 19.9544 22.0793L21.0256 9.21685H6.975L8.04688 22.0793ZM10.6172 19.8331V12.8331C10.6173 12.2533 11.0874 11.7831 11.6672 11.7831C12.247 11.7831 12.7171 12.2533 12.7172 12.8331V19.8331C12.7172 20.413 12.2471 20.8831 11.6672 20.8831C11.0873 20.8831 10.6172 20.413 10.6172 19.8331ZM15.2841 19.8331V12.8331C15.2842 12.2533 15.7543 11.7831 16.3341 11.7831C16.9138 11.7832 17.384 12.2533 17.3841 12.8331V19.8331C17.3841 20.4129 16.9139 20.8829 16.3341 20.8831C15.7542 20.8831 15.2841 20.413 15.2841 19.8331ZM18.5503 7.11685H23.3341C23.9139 7.11697 24.3841 7.58702 24.3841 8.16685C24.384 8.74656 23.9138 9.21672 23.3341 9.21685H23.1338L22.0482 22.2311C22.0316 23.105 21.6789 23.9395 21.0598 24.5587C20.4253 25.1932 19.5645 25.5499 18.6672 25.55H9.33408C8.43677 25.55 7.576 25.1932 6.9415 24.5587C6.31955 23.9367 5.96468 23.0976 5.95098 22.2195L4.86748 9.21685H4.66719C4.08736 9.21685 3.61731 8.74664 3.61719 8.16685C3.61719 7.58695 4.08729 7.11685 4.66719 7.11685H9.45029V4.66685C9.45029 4.079 9.68407 3.51506 10.0997 3.09937C10.5154 2.68366 11.0793 2.44995 11.6672 2.44995H16.3341C16.9219 2.45001 17.4859 2.68371 17.9016 3.09937C18.3171 3.51505 18.5503 4.07906 18.5503 4.66685V7.11685Z" fill="black" fill-opacity="0.2"/>
<path d="M16.4503 4.66685C16.4503 4.6359 16.438 4.60601 16.4161 4.58413C16.3943 4.56238 16.3649 4.55001 16.3341 4.54995H11.6672C11.6362 4.54995 11.6064 4.56225 11.5845 4.58413C11.5627 4.606 11.5503 4.63596 11.5503 4.66685V7.11685H16.4503V4.66685ZM8.04688 22.0793C8.04929 22.1083 8.05029 22.1377 8.05029 22.1668C8.05035 22.5071 8.18572 22.8334 8.42627 23.074C8.66694 23.3146 8.99372 23.45 9.33408 23.45H18.6672C19.0075 23.45 19.3337 23.3146 19.5743 23.074C19.8149 22.8334 19.9502 22.5071 19.9503 22.1668C19.9503 22.1377 19.952 22.1083 19.9544 22.0793L21.0256 9.21685H6.975L8.04688 22.0793ZM10.6172 19.8331V12.8331C10.6173 12.2533 11.0874 11.7831 11.6672 11.7831C12.247 11.7831 12.7171 12.2533 12.7172 12.8331V19.8331C12.7172 20.413 12.2471 20.8831 11.6672 20.8831C11.0873 20.8831 10.6172 20.413 10.6172 19.8331ZM15.2841 19.8331V12.8331C15.2842 12.2533 15.7543 11.7831 16.3341 11.7831C16.9138 11.7832 17.384 12.2533 17.3841 12.8331V19.8331C17.3841 20.4129 16.9139 20.8829 16.3341 20.8831C15.7542 20.8831 15.2841 20.413 15.2841 19.8331ZM18.5503 7.11685H23.3341C23.9139 7.11697 24.3841 7.58702 24.3841 8.16685C24.384 8.74656 23.9138 9.21672 23.3341 9.21685H23.1338L22.0482 22.2311C22.0316 23.105 21.6789 23.9395 21.0598 24.5587C20.4253 25.1932 19.5645 25.5499 18.6672 25.55H9.33408C8.43677 25.55 7.576 25.1932 6.9415 24.5587C6.31955 23.9367 5.96468 23.0976 5.95098 22.2195L4.86748 9.21685H4.66719C4.08736 9.21685 3.61731 8.74664 3.61719 8.16685C3.61719 7.58695 4.08729 7.11685 4.66719 7.11685H9.45029V4.66685C9.45029 4.079 9.68407 3.51506 10.0997 3.09937C10.5154 2.68366 11.0793 2.44995 11.6672 2.44995H16.3341C16.9219 2.45001 17.4859 2.68371 17.9016 3.09937C18.3171 3.51505 18.5503 4.07906 18.5503 4.66685V7.11685Z" fill="black" fill-opacity="0.2"/>
<path d="M16.4503 4.66685C16.4503 4.6359 16.438 4.60601 16.4161 4.58413C16.3943 4.56238 16.3649 4.55001 16.3341 4.54995H11.6672C11.6362 4.54995 11.6064 4.56225 11.5845 4.58413C11.5627 4.606 11.5503 4.63596 11.5503 4.66685V7.11685H16.4503V4.66685ZM8.04688 22.0793C8.04929 22.1083 8.05029 22.1377 8.05029 22.1668C8.05035 22.5071 8.18572 22.8334 8.42627 23.074C8.66694 23.3146 8.99372 23.45 9.33408 23.45H18.6672C19.0075 23.45 19.3337 23.3146 19.5743 23.074C19.8149 22.8334 19.9502 22.5071 19.9503 22.1668C19.9503 22.1377 19.952 22.1083 19.9544 22.0793L21.0256 9.21685H6.975L8.04688 22.0793ZM10.6172 19.8331V12.8331C10.6173 12.2533 11.0874 11.7831 11.6672 11.7831C12.247 11.7831 12.7171 12.2533 12.7172 12.8331V19.8331C12.7172 20.413 12.2471 20.8831 11.6672 20.8831C11.0873 20.8831 10.6172 20.413 10.6172 19.8331ZM15.2841 19.8331V12.8331C15.2842 12.2533 15.7543 11.7831 16.3341 11.7831C16.9138 11.7832 17.384 12.2533 17.3841 12.8331V19.8331C17.3841 20.4129 16.9139 20.8829 16.3341 20.8831C15.7542 20.8831 15.2841 20.413 15.2841 19.8331ZM18.5503 7.11685H23.3341C23.9139 7.11697 24.3841 7.58702 24.3841 8.16685C24.384 8.74656 23.9138 9.21672 23.3341 9.21685H23.1338L22.0482 22.2311C22.0316 23.105 21.6789 23.9395 21.0598 24.5587C20.4253 25.1932 19.5645 25.5499 18.6672 25.55H9.33408C8.43677 25.55 7.576 25.1932 6.9415 24.5587C6.31955 23.9367 5.96468 23.0976 5.95098 22.2195L4.86748 9.21685H4.66719C4.08736 9.21685 3.61731 8.74664 3.61719 8.16685C3.61719 7.58695 4.08729 7.11685 4.66719 7.11685H9.45029V4.66685C9.45029 4.079 9.68407 3.51506 10.0997 3.09937C10.5154 2.68366 11.0793 2.44995 11.6672 2.44995H16.3341C16.9219 2.45001 17.4859 2.68371 17.9016 3.09937C18.3171 3.51505 18.5503 4.07906 18.5503 4.66685V7.11685Z" fill="black" fill-opacity="0.2"/>
<path d="M16.4503 4.66685C16.4503 4.6359 16.438 4.60601 16.4161 4.58413C16.3943 4.56238 16.3649 4.55001 16.3341 4.54995H11.6672C11.6362 4.54995 11.6064 4.56225 11.5845 4.58413C11.5627 4.606 11.5503 4.63596 11.5503 4.66685V7.11685H16.4503V4.66685ZM8.04688 22.0793C8.04929 22.1083 8.05029 22.1377 8.05029 22.1668C8.05035 22.5071 8.18572 22.8334 8.42627 23.074C8.66694 23.3146 8.99372 23.45 9.33408 23.45H18.6672C19.0075 23.45 19.3337 23.3146 19.5743 23.074C19.8149 22.8334 19.9502 22.5071 19.9503 22.1668C19.9503 22.1377 19.952 22.1083 19.9544 22.0793L21.0256 9.21685H6.975L8.04688 22.0793ZM10.6172 19.8331V12.8331C10.6173 12.2533 11.0874 11.7831 11.6672 11.7831C12.247 11.7831 12.7171 12.2533 12.7172 12.8331V19.8331C12.7172 20.413 12.2471 20.8831 11.6672 20.8831C11.0873 20.8831 10.6172 20.413 10.6172 19.8331ZM15.2841 19.8331V12.8331C15.2842 12.2533 15.7543 11.7831 16.3341 11.7831C16.9138 11.7832 17.384 12.2533 17.3841 12.8331V19.8331C17.3841 20.4129 16.9139 20.8829 16.3341 20.8831C15.7542 20.8831 15.2841 20.413 15.2841 19.8331ZM18.5503 7.11685H23.3341C23.9139 7.11697 24.3841 7.58702 24.3841 8.16685C24.384 8.74656 23.9138 9.21672 23.3341 9.21685H23.1338L22.0482 22.2311C22.0316 23.105 21.6789 23.9395 21.0598 24.5587C20.4253 25.1932 19.5645 25.5499 18.6672 25.55H9.33408C8.43677 25.55 7.576 25.1932 6.9415 24.5587C6.31955 23.9367 5.96468 23.0976 5.95098 22.2195L4.86748 9.21685H4.66719C4.08736 9.21685 3.61731 8.74664 3.61719 8.16685C3.61719 7.58695 4.08729 7.11685 4.66719 7.11685H9.45029V4.66685C9.45029 4.079 9.68407 3.51506 10.0997 3.09937C10.5154 2.68366 11.0793 2.44995 11.6672 2.44995H16.3341C16.9219 2.45001 17.4859 2.68371 17.9016 3.09937C18.3171 3.51505 18.5503 4.07906 18.5503 4.66685V7.11685Z" fill="black" fill-opacity="0.2"/>
<path d="M16.4503 4.66685C16.4503 4.6359 16.438 4.60601 16.4161 4.58413C16.3943 4.56238 16.3649 4.55001 16.3341 4.54995H11.6672C11.6362 4.54995 11.6064 4.56225 11.5845 4.58413C11.5627 4.606 11.5503 4.63596 11.5503 4.66685V7.11685H16.4503V4.66685ZM8.04688 22.0793C8.04929 22.1083 8.05029 22.1377 8.05029 22.1668C8.05035 22.5071 8.18572 22.8334 8.42627 23.074C8.66694 23.3146 8.99372 23.45 9.33408 23.45H18.6672C19.0075 23.45 19.3337 23.3146 19.5743 23.074C19.8149 22.8334 19.9502 22.5071 19.9503 22.1668C19.9503 22.1377 19.952 22.1083 19.9544 22.0793L21.0256 9.21685H6.975L8.04688 22.0793ZM10.6172 19.8331V12.8331C10.6173 12.2533 11.0874 11.7831 11.6672 11.7831C12.247 11.7831 12.7171 12.2533 12.7172 12.8331V19.8331C12.7172 20.413 12.2471 20.8831 11.6672 20.8831C11.0873 20.8831 10.6172 20.413 10.6172 19.8331ZM15.2841 19.8331V12.8331C15.2842 12.2533 15.7543 11.7831 16.3341 11.7831C16.9138 11.7832 17.384 12.2533 17.3841 12.8331V19.8331C17.3841 20.4129 16.9139 20.8829 16.3341 20.8831C15.7542 20.8831 15.2841 20.413 15.2841 19.8331ZM18.5503 7.11685H23.3341C23.9139 7.11697 24.3841 7.58702 24.3841 8.16685C24.384 8.74656 23.9138 9.21672 23.3341 9.21685H23.1338L22.0482 22.2311C22.0316 23.105 21.6789 23.9395 21.0598 24.5587C20.4253 25.1932 19.5645 25.5499 18.6672 25.55H9.33408C8.43677 25.55 7.576 25.1932 6.9415 24.5587C6.31955 23.9367 5.96468 23.0976 5.95098 22.2195L4.86748 9.21685H4.66719C4.08736 9.21685 3.61731 8.74664 3.61719 8.16685C3.61719 7.58695 4.08729 7.11685 4.66719 7.11685H9.45029V4.66685C9.45029 4.079 9.68407 3.51506 10.0997 3.09937C10.5154 2.68366 11.0793 2.44995 11.6672 2.44995H16.3341C16.9219 2.45001 17.4859 2.68371 17.9016 3.09937C18.3171 3.51505 18.5503 4.07906 18.5503 4.66685V7.11685Z" fill="black" fill-opacity="0.2"/>
<path d="M16.4503 4.66685C16.4503 4.6359 16.438 4.60601 16.4161 4.58413C16.3943 4.56238 16.3649 4.55001 16.3341 4.54995H11.6672C11.6362 4.54995 11.6064 4.56225 11.5845 4.58413C11.5627 4.606 11.5503 4.63596 11.5503 4.66685V7.11685H16.4503V4.66685ZM8.04688 22.0793C8.04929 22.1083 8.05029 22.1377 8.05029 22.1668C8.05035 22.5071 8.18572 22.8334 8.42627 23.074C8.66694 23.3146 8.99372 23.45 9.33408 23.45H18.6672C19.0075 23.45 19.3337 23.3146 19.5743 23.074C19.8149 22.8334 19.9502 22.5071 19.9503 22.1668C19.9503 22.1377 19.952 22.1083 19.9544 22.0793L21.0256 9.21685H6.975L8.04688 22.0793ZM10.6172 19.8331V12.8331C10.6173 12.2533 11.0874 11.7831 11.6672 11.7831C12.247 11.7831 12.7171 12.2533 12.7172 12.8331V19.8331C12.7172 20.413 12.2471 20.8831 11.6672 20.8831C11.0873 20.8831 10.6172 20.413 10.6172 19.8331ZM15.2841 19.8331V12.8331C15.2842 12.2533 15.7543 11.7831 16.3341 11.7831C16.9138 11.7832 17.384 12.2533 17.3841 12.8331V19.8331C17.3841 20.4129 16.9139 20.8829 16.3341 20.8831C15.7542 20.8831 15.2841 20.413 15.2841 19.8331ZM18.5503 7.11685H23.3341C23.9139 7.11697 24.3841 7.58702 24.3841 8.16685C24.384 8.74656 23.9138 9.21672 23.3341 9.21685H23.1338L22.0482 22.2311C22.0316 23.105 21.6789 23.9395 21.0598 24.5587C20.4253 25.1932 19.5645 25.5499 18.6672 25.55H9.33408C8.43677 25.55 7.576 25.1932 6.9415 24.5587C6.31955 23.9367 5.96468 23.0976 5.95098 22.2195L4.86748 9.21685H4.66719C4.08736 9.21685 3.61731 8.74664 3.61719 8.16685C3.61719 7.58695 4.08729 7.11685 4.66719 7.11685H9.45029V4.66685C9.45029 4.079 9.68407 3.51506 10.0997 3.09937C10.5154 2.68366 11.0793 2.44995 11.6672 2.44995H16.3341C16.9219 2.45001 17.4859 2.68371 17.9016 3.09937C18.3171 3.51505 18.5503 4.07906 18.5503 4.66685V7.11685Z" fill="black" fill-opacity="0.2"/>
<path d="M16.4503 4.66685C16.4503 4.6359 16.438 4.60601 16.4161 4.58413C16.3943 4.56238 16.3649 4.55001 16.3341 4.54995H11.6672C11.6362 4.54995 11.6064 4.56225 11.5845 4.58413C11.5627 4.606 11.5503 4.63596 11.5503 4.66685V7.11685H16.4503V4.66685ZM8.04688 22.0793C8.04929 22.1083 8.05029 22.1377 8.05029 22.1668C8.05035 22.5071 8.18572 22.8334 8.42627 23.074C8.66694 23.3146 8.99372 23.45 9.33408 23.45H18.6672C19.0075 23.45 19.3337 23.3146 19.5743 23.074C19.8149 22.8334 19.9502 22.5071 19.9503 22.1668C19.9503 22.1377 19.952 22.1083 19.9544 22.0793L21.0256 9.21685H6.975L8.04688 22.0793ZM10.6172 19.8331V12.8331C10.6173 12.2533 11.0874 11.7831 11.6672 11.7831C12.247 11.7831 12.7171 12.2533 12.7172 12.8331V19.8331C12.7172 20.413 12.2471 20.8831 11.6672 20.8831C11.0873 20.8831 10.6172 20.413 10.6172 19.8331ZM15.2841 19.8331V12.8331C15.2842 12.2533 15.7543 11.7831 16.3341 11.7831C16.9138 11.7832 17.384 12.2533 17.3841 12.8331V19.8331C17.3841 20.4129 16.9139 20.8829 16.3341 20.8831C15.7542 20.8831 15.2841 20.413 15.2841 19.8331ZM18.5503 7.11685H23.3341C23.9139 7.11697 24.3841 7.58702 24.3841 8.16685C24.384 8.74656 23.9138 9.21672 23.3341 9.21685H23.1338L22.0482 22.2311C22.0316 23.105 21.6789 23.9395 21.0598 24.5587C20.4253 25.1932 19.5645 25.5499 18.6672 25.55H9.33408C8.43677 25.55 7.576 25.1932 6.9415 24.5587C6.31955 23.9367 5.96468 23.0976 5.95098 22.2195L4.86748 9.21685H4.66719C4.08736 9.21685 3.61731 8.74664 3.61719 8.16685C3.61719 7.58695 4.08729 7.11685 4.66719 7.11685H9.45029V4.66685C9.45029 4.079 9.68407 3.51506 10.0997 3.09937C10.5154 2.68366 11.0793 2.44995 11.6672 2.44995H16.3341C16.9219 2.45001 17.4859 2.68371 17.9016 3.09937C18.3171 3.51505 18.5503 4.07906 18.5503 4.66685V7.11685Z" fill="black" fill-opacity="0.2"/>
<path d="M16.4503 4.66685C16.4503 4.6359 16.438 4.60601 16.4161 4.58413C16.3943 4.56238 16.3649 4.55001 16.3341 4.54995H11.6672C11.6362 4.54995 11.6064 4.56225 11.5845 4.58413C11.5627 4.606 11.5503 4.63596 11.5503 4.66685V7.11685H16.4503V4.66685ZM8.04688 22.0793C8.04929 22.1083 8.05029 22.1377 8.05029 22.1668C8.05035 22.5071 8.18572 22.8334 8.42627 23.074C8.66694 23.3146 8.99372 23.45 9.33408 23.45H18.6672C19.0075 23.45 19.3337 23.3146 19.5743 23.074C19.8149 22.8334 19.9502 22.5071 19.9503 22.1668C19.9503 22.1377 19.952 22.1083 19.9544 22.0793L21.0256 9.21685H6.975L8.04688 22.0793ZM10.6172 19.8331V12.8331C10.6173 12.2533 11.0874 11.7831 11.6672 11.7831C12.247 11.7831 12.7171 12.2533 12.7172 12.8331V19.8331C12.7172 20.413 12.2471 20.8831 11.6672 20.8831C11.0873 20.8831 10.6172 20.413 10.6172 19.8331ZM15.2841 19.8331V12.8331C15.2842 12.2533 15.7543 11.7831 16.3341 11.7831C16.9138 11.7832 17.384 12.2533 17.3841 12.8331V19.8331C17.3841 20.4129 16.9139 20.8829 16.3341 20.8831C15.7542 20.8831 15.2841 20.413 15.2841 19.8331ZM18.5503 7.11685H23.3341C23.9139 7.11697 24.3841 7.58702 24.3841 8.16685C24.384 8.74656 23.9138 9.21672 23.3341 9.21685H23.1338L22.0482 22.2311C22.0316 23.105 21.6789 23.9395 21.0598 24.5587C20.4253 25.1932 19.5645 25.5499 18.6672 25.55H9.33408C8.43677 25.55 7.576 25.1932 6.9415 24.5587C6.31955 23.9367 5.96468 23.0976 5.95098 22.2195L4.86748 9.21685H4.66719C4.08736 9.21685 3.61731 8.74664 3.61719 8.16685C3.61719 7.58695 4.08729 7.11685 4.66719 7.11685H9.45029V4.66685C9.45029 4.079 9.68407 3.51506 10.0997 3.09937C10.5154 2.68366 11.0793 2.44995 11.6672 2.44995H16.3341C16.9219 2.45001 17.4859 2.68371 17.9016 3.09937C18.3171 3.51505 18.5503 4.07906 18.5503 4.66685V7.11685Z" fill="black" fill-opacity="0.2"/>
<path d="M16.4503 4.66685C16.4503 4.6359 16.438 4.60601 16.4161 4.58413C16.3943 4.56238 16.3649 4.55001 16.3341 4.54995H11.6672C11.6362 4.54995 11.6064 4.56225 11.5845 4.58413C11.5627 4.606 11.5503 4.63596 11.5503 4.66685V7.11685H16.4503V4.66685ZM8.04688 22.0793C8.04929 22.1083 8.05029 22.1377 8.05029 22.1668C8.05035 22.5071 8.18572 22.8334 8.42627 23.074C8.66694 23.3146 8.99372 23.45 9.33408 23.45H18.6672C19.0075 23.45 19.3337 23.3146 19.5743 23.074C19.8149 22.8334 19.9502 22.5071 19.9503 22.1668C19.9503 22.1377 19.952 22.1083 19.9544 22.0793L21.0256 9.21685H6.975L8.04688 22.0793ZM10.6172 19.8331V12.8331C10.6173 12.2533 11.0874 11.7831 11.6672 11.7831C12.247 11.7831 12.7171 12.2533 12.7172 12.8331V19.8331C12.7172 20.413 12.2471 20.8831 11.6672 20.8831C11.0873 20.8831 10.6172 20.413 10.6172 19.8331ZM15.2841 19.8331V12.8331C15.2842 12.2533 15.7543 11.7831 16.3341 11.7831C16.9138 11.7832 17.384 12.2533 17.3841 12.8331V19.8331C17.3841 20.4129 16.9139 20.8829 16.3341 20.8831C15.7542 20.8831 15.2841 20.413 15.2841 19.8331ZM18.5503 7.11685H23.3341C23.9139 7.11697 24.3841 7.58702 24.3841 8.16685C24.384 8.74656 23.9138 9.21672 23.3341 9.21685H23.1338L22.0482 22.2311C22.0316 23.105 21.6789 23.9395 21.0598 24.5587C20.4253 25.1932 19.5645 25.5499 18.6672 25.55H9.33408C8.43677 25.55 7.576 25.1932 6.9415 24.5587C6.31955 23.9367 5.96468 23.0976 5.95098 22.2195L4.86748 9.21685H4.66719C4.08736 9.21685 3.61731 8.74664 3.61719 8.16685C3.61719 7.58695 4.08729 7.11685 4.66719 7.11685H9.45029V4.66685C9.45029 4.079 9.68407 3.51506 10.0997 3.09937C10.5154 2.68366 11.0793 2.44995 11.6672 2.44995H16.3341C16.9219 2.45001 17.4859 2.68371 17.9016 3.09937C18.3171 3.51505 18.5503 4.07906 18.5503 4.66685V7.11685Z" fill="black" fill-opacity="0.2"/>
</svg>
