<svg width="40" height="40" viewBox="0 0 40 40" fill="none" xmlns="http://www.w3.org/2000/svg">
<path d="M9.66667 33.6667C7.83333 33.6667 6.26389 33.0139 4.95833 31.7083C3.65278 30.4028 3 28.8333 3 27V13.6667C3 11.8333 3.65278 10.2639 4.95833 8.95833C6.26389 7.65278 7.83333 7 9.66667 7H29.6667C31.5 7 33.0694 7.65278 34.375 8.95833C35.6806 10.2639 36.3333 11.8333 36.3333 13.6667V27C36.3333 28.8333 35.6806 30.4028 34.375 31.7083C33.0694 33.0139 31.5 33.6667 29.6667 33.6667H9.66667ZM9.66667 13.6667H29.6667C30.2778 13.6667 30.8611 13.7361 31.4167 13.875C31.9722 14.0139 32.5 14.2361 33 14.5417V13.6667C33 12.75 32.6739 11.9656 32.0217 11.3133C31.3694 10.6611 30.5844 10.3344 29.6667 10.3333H9.66667C8.75 10.3333 7.96556 10.66 7.31333 11.3133C6.66111 11.9667 6.33444 12.7511 6.33333 13.6667V14.5417C6.83333 14.2361 7.36111 14.0139 7.91667 13.875C8.47222 13.7361 9.05556 13.6667 9.66667 13.6667ZM6.58333 19.0833L25.125 23.5833C25.375 23.6389 25.625 23.6389 25.875 23.5833C26.125 23.5278 26.3611 23.4167 26.5833 23.25L32.375 18.4167C32.0694 18 31.6806 17.66 31.2083 17.3967C30.7361 17.1333 30.2222 17.0011 29.6667 17H9.66667C8.94444 17 8.31278 17.1878 7.77167 17.5633C7.23056 17.9389 6.83444 18.4456 6.58333 19.0833Z" fill="#0B257C"/>
</svg>
