<svg width="40" height="40" viewBox="0 0 40 40" fill="none" xmlns="http://www.w3.org/2000/svg">
<path d="M12.4048 8.91675C13.4698 8.91675 14.4548 9.00008 15.3548 9.24675C16.2565 9.41175 16.9948 9.74175 17.6498 10.1534C18.3065 10.5656 18.7982 11.1429 19.1248 11.8851C19.4532 12.6267 19.6182 13.5351 19.6182 14.5234C19.6182 15.6784 19.3715 16.6667 18.7982 17.4084C18.3065 18.1517 17.4865 18.8101 16.5032 19.3051C17.8965 19.7184 18.9615 20.4601 19.6182 21.4484C20.2748 22.4367 20.6832 23.6751 20.6832 25.0767C20.6832 26.2317 20.4365 27.2201 20.0265 28.0451C19.6182 28.8701 18.9615 29.6117 18.2232 30.1067C17.4208 30.6367 16.5343 31.0267 15.6015 31.2601C14.6182 31.5084 13.6348 31.6734 12.6515 31.6734H1.6665V8.91675H12.4048ZM11.7482 18.1501C12.6498 18.1501 13.3882 17.9034 13.9615 17.4917C14.5348 17.0801 14.7815 16.3367 14.7815 15.4301C14.7815 14.9351 14.6982 14.4401 14.5348 14.1117C14.3715 13.7834 14.1248 13.5334 13.7982 13.2867C13.4642 13.0992 13.1049 12.9605 12.7315 12.8751C12.3215 12.7917 11.9132 12.7917 11.4198 12.7917H6.6665V18.1517L11.7482 18.1501ZM11.9948 27.8801C12.4865 27.8801 12.9782 27.7967 13.3882 27.7151C13.7982 27.6317 14.2082 27.4684 14.5348 27.2201C14.8675 26.9773 15.1466 26.6687 15.3548 26.3134C15.5182 25.9017 15.6832 25.4067 15.6832 24.8301C15.6832 23.6751 15.3548 22.8501 14.6998 22.2734C14.0432 21.7784 13.1415 21.5317 12.0765 21.5317H6.6665V27.8817L11.9948 27.8801ZM27.8148 27.7967C28.4704 28.4567 29.4537 28.7867 30.7648 28.7867C31.6665 28.7867 32.4865 28.5401 33.1415 28.1284C33.7982 27.6329 34.2082 27.1379 34.3715 26.6434H38.3882C37.7315 28.6217 36.7482 30.0234 35.4382 30.9301C34.1248 31.7551 32.5682 32.2501 30.6832 32.2501C29.4773 32.2519 28.2817 32.028 27.1582 31.5901C26.1467 31.2129 25.2451 30.5897 24.5348 29.7767C23.772 29.019 23.2091 28.0838 22.8965 27.0551C22.4865 25.9834 22.3215 24.8301 22.3215 23.5101C22.3215 22.2734 22.4865 21.1201 22.8965 20.0467C23.2898 19.0127 23.8738 18.0618 24.6182 17.2434C25.3548 16.5017 26.2565 15.8434 27.2398 15.4301C28.3345 14.9906 29.5036 14.7665 30.6832 14.7701C32.0765 14.7701 33.3065 15.0184 34.3715 15.5951C35.4382 16.1717 36.2565 16.8317 36.9115 17.8217C37.5682 18.7284 38.0615 19.8001 38.3882 20.9551C38.5515 22.1084 38.6332 23.2634 38.5515 24.5817H26.6665C26.6665 25.9017 27.1582 27.1384 27.8148 27.7984M32.9782 19.1417C32.4048 18.5651 31.5032 18.2351 30.4365 18.2351C29.8111 18.2257 29.1926 18.3669 28.6332 18.6467C28.1415 18.8951 27.8148 19.2251 27.4865 19.5551C27.1829 19.8725 26.983 20.2747 26.9132 20.7084C26.8298 21.1217 26.7482 21.4501 26.7482 21.7801H34.1248C33.9615 20.5434 33.5515 19.7201 32.9782 19.1417ZM25.7648 10.4834H34.9448V12.7101H25.7665L25.7648 10.4834Z" fill="#5E5E5E"/>
</svg>
