<svg width="40" height="40" viewBox="0 0 40 40" fill="none" xmlns="http://www.w3.org/2000/svg">
<path d="M20.0002 15.8666C19.1827 15.8666 18.3835 16.109 17.7038 16.5632C17.0241 17.0174 16.4943 17.6629 16.1815 18.4182C15.8686 19.1734 15.7868 20.0045 15.9462 20.8063C16.1057 21.6081 16.4994 22.3446 17.0775 22.9226C17.6555 23.5007 18.392 23.8943 19.1938 24.0538C19.9956 24.2133 20.8267 24.1315 21.5819 23.8186C22.3372 23.5058 22.9827 22.976 23.4369 22.2963C23.8911 21.6166 24.1335 20.8174 24.1335 19.9999C24.1335 19.4571 24.0266 18.9196 23.8189 18.4182C23.6111 17.9167 23.3067 17.461 22.9229 17.0772C22.5391 16.6934 22.0834 16.3889 21.5819 16.1812C21.0804 15.9735 20.543 15.8666 20.0002 15.8666ZM36.5502 11.7833C36.5425 10.4961 36.3054 9.22058 35.8502 8.01658C35.5156 7.13535 34.998 6.33507 34.3315 5.66856C33.665 5.00205 32.8647 4.48445 31.9835 4.14992C30.7795 3.69466 29.504 3.45763 28.2168 3.44992C26.0668 3.33325 25.4335 3.33325 20.0002 3.33325C14.5668 3.33325 13.9335 3.33325 11.7835 3.44992C10.4963 3.45763 9.22083 3.69466 8.01683 4.14992C7.1356 4.48445 6.33532 5.00205 5.6688 5.66856C5.00229 6.33507 4.48469 7.13535 4.15016 8.01658C3.69491 9.22058 3.45787 10.4961 3.45016 11.7833C3.3335 13.9333 3.3335 14.5666 3.3335 19.9999C3.3335 25.4333 3.3335 26.0666 3.45016 28.2166C3.46938 29.5081 3.70602 30.7871 4.15016 31.9999C4.48134 32.8781 4.99875 33.6741 5.66683 34.3333C6.33082 35.0033 7.13272 35.5209 8.01683 35.8499C9.22083 36.3052 10.4963 36.5422 11.7835 36.5499C13.9335 36.6666 14.5668 36.6666 20.0002 36.6666C25.4335 36.6666 26.0668 36.6666 28.2168 36.5499C29.504 36.5422 30.7795 36.3052 31.9835 35.8499C32.8676 35.5209 33.6695 35.0033 34.3335 34.3333C35.0016 33.6741 35.519 32.8781 35.8502 31.9999C36.304 30.7897 36.5409 29.509 36.5502 28.2166C36.6668 26.0666 36.6668 25.4333 36.6668 19.9999C36.6668 14.5666 36.6668 13.9333 36.5502 11.7833ZM32.3168 25.1166C32.2642 26.1452 32.0447 27.1584 31.6668 28.1166C31.3433 28.9161 30.8623 29.6423 30.2524 30.2522C29.6426 30.862 28.9163 31.343 28.1168 31.6666C27.1496 32.0234 26.1307 32.2205 25.1002 32.2499H14.9002C13.8696 32.2205 12.8507 32.0234 11.8835 31.6666C11.0567 31.36 10.3103 30.8699 9.70016 30.2332C9.09586 29.6357 8.62942 28.9133 8.3335 28.1166C7.9764 27.15 7.78483 26.1302 7.76683 25.0999V14.8999C7.78483 13.8697 7.9764 12.8498 8.3335 11.8833C8.64011 11.0565 9.13017 10.31 9.76683 9.69992C10.3677 9.09969 11.0892 8.63386 11.8835 8.33325C12.8507 7.97641 13.8696 7.77939 14.9002 7.74992H25.1002C26.1307 7.77939 27.1496 7.97641 28.1168 8.33325C28.9436 8.63987 29.6901 9.12993 30.3002 9.76659C30.9045 10.3642 31.3709 11.0866 31.6668 11.8833C32.0237 12.8505 32.2207 13.8694 32.2502 14.8999V19.9999C32.2502 23.4333 32.3668 23.7833 32.3168 25.0999V25.1166ZM29.6502 12.7166C29.4517 12.1782 29.1389 11.6893 28.7331 11.2836C28.3274 10.8779 27.8385 10.565 27.3002 10.3666C26.5609 10.1104 25.7824 9.98624 25.0002 9.99992H15.0002C14.2139 10.0076 13.4353 10.1543 12.7002 10.4333C12.17 10.6227 11.6863 10.9228 11.2811 11.3136C10.876 11.7044 10.5586 12.177 10.3502 12.6999C10.109 13.4424 9.99078 14.2193 10.0002 14.9999V24.9999C10.0176 25.7852 10.164 26.5622 10.4335 27.2999C10.6319 27.8383 10.9448 28.3272 11.3505 28.7329C11.7562 29.1386 12.2451 29.4515 12.7835 29.6499C13.4948 29.9106 14.243 30.0569 15.0002 30.0833H25.0002C25.7864 30.0756 26.565 29.9289 27.3002 29.6499C27.8385 29.4515 28.3274 29.1386 28.7331 28.7329C29.1389 28.3272 29.4517 27.8383 29.6502 27.2999C29.9291 26.5648 30.0758 25.7861 30.0835 24.9999V14.9999C30.0832 14.213 29.9362 13.433 29.6502 12.6999V12.7166ZM20.0002 26.3666C19.1649 26.3666 18.3378 26.2018 17.5663 25.8816C16.7948 25.5615 16.094 25.0922 15.5041 24.5008C14.9143 23.9094 14.4469 23.2074 14.1287 22.4351C13.8106 21.6627 13.648 20.8352 13.6502 19.9999C13.6502 18.74 14.024 17.5084 14.7243 16.4611C15.4246 15.4137 16.4199 14.5977 17.5843 14.1163C18.7486 13.6349 20.0296 13.5098 21.265 13.7568C22.5005 14.0038 23.6349 14.6119 24.5246 15.5039C25.4144 16.396 26.0194 17.532 26.2632 18.7681C26.507 20.0042 26.3785 21.2848 25.8941 22.4479C25.4096 23.611 24.591 24.6041 23.5418 25.3017C22.4926 25.9993 21.2601 26.3699 20.0002 26.3666ZM26.6668 14.8833C26.2984 14.8443 25.9574 14.6703 25.7096 14.3949C25.4618 14.1195 25.3247 13.7621 25.3247 13.3916C25.3247 13.0211 25.4618 12.6637 25.7096 12.3883C25.9574 12.1129 26.2984 11.9389 26.6668 11.8999C27.0353 11.9389 27.3762 12.1129 27.624 12.3883C27.8718 12.6637 28.0089 13.0211 28.0089 13.3916C28.0089 13.7621 27.8718 14.1195 27.624 14.3949C27.3762 14.6703 27.0353 14.8443 26.6668 14.8833Z" fill="#5E5E5E"/>
</svg>
